{"glyphs":{"0":{"ha":569,"x_min":18,"x_max":550,"o":"m 283 0 q 224 0 283 0 q 91 86 164 0 q 18 310 18 172 q 62 523 18 449 q 167 618 106 597 q 308 736 189 736 q 481 660 411 736 q 550 392 550 583 q 476 100 550 200 q 283 0 403 0 m 376 344 q 342 483 376 453 q 243 513 307 513 q 225 513 233 513 q 199 327 199 425 q 224 187 199 229 q 299 144 249 144 q 376 344 376 144 z "},"1":{"ha":368,"x_min":17,"x_max":357,"o":"m 31 522 q 17 564 17 536 q 25 619 17 592 q 51 676 33 647 q 103 723 69 704 q 184 742 136 742 q 258 708 232 742 q 285 618 285 674 l 285 181 l 347 181 q 357 83 357 110 q 333 28 357 56 q 254 0 308 0 l 43 0 q 18 90 18 47 q 38 156 18 133 q 99 188 57 179 l 99 460 q 78 507 99 492 q 31 522 58 522 z "},"2":{"ha":508,"x_min":15,"x_max":494,"o":"m 42 0 q 15 85 15 53 q 69 165 15 147 q 138 224 104 193 q 208 312 172 256 q 244 412 244 368 q 221 481 244 456 q 165 507 197 507 q 53 493 119 507 l 32 489 q 25 571 25 538 q 84 687 25 638 q 246 736 143 736 q 489 497 489 736 q 429 323 489 413 q 288 178 369 233 q 485 181 418 181 q 493 86 493 117 q 469 28 493 56 q 392 0 446 0 l 42 0 z "},"3":{"ha":497,"x_min":10,"x_max":471,"o":"m 471 153 q 410 -15 471 50 q 232 -81 350 -81 q 63 -35 114 -81 q 11 54 11 10 q 13 69 11 63 q 65 143 22 124 q 76 130 69 138 q 112 110 83 122 q 174 97 140 97 q 247 182 247 97 q 206 261 247 233 q 167 260 192 260 q 131 264 143 260 q 116 273 119 268 q 110 284 113 278 q 110 294 108 290 q 110 297 111 297 l 122 304 q 228 396 197 343 q 242 448 242 419 q 223 494 242 476 q 178 513 204 513 q 60 499 139 513 l 36 494 q 29 571 29 538 q 85 687 29 638 q 247 736 142 736 q 410 685 353 736 q 468 533 468 633 q 386 329 468 403 q 448 256 425 304 q 471 153 471 207 z "},"4":{"ha":550,"x_min":8,"x_max":547,"o":"m 296 74 l 89 76 q 17 122 36 76 q 8 163 8 142 q 26 203 8 183 q 214 703 103 446 q 282 722 258 725 q 314 710 306 718 q 386 729 367 729 q 463 705 438 729 q 488 614 488 681 l 468 218 l 533 219 q 547 138 547 169 q 496 74 547 74 l 463 74 l 457 -64 q 367 -81 401 -81 q 296 74 296 -81 m 296 217 l 296 507 q 174 217 282 469 l 296 217 z "},"5":{"ha":510,"x_min":11,"x_max":486,"o":"m 475 717 q 486 619 486 685 q 461 522 486 554 q 378 490 436 490 q 228 497 289 490 q 210 356 225 432 q 253 358 232 358 q 486 149 486 358 q 419 -18 486 47 q 236 -83 353 -83 q 24 6 67 -83 q 13 56 13 29 q 28 104 13 82 q 63 135 44 126 q 179 89 108 89 q 263 172 263 89 q 243 226 263 206 q 204 250 224 246 l 185 253 q 128 242 150 242 q 84 251 107 242 q 49 279 61 261 q 38 324 38 297 q 69 517 38 351 l 51 522 q 39 610 39 554 q 68 696 39 665 q 151 726 97 726 q 174 726 158 726 q 283 722 190 726 q 475 717 375 717 z "},"6":{"ha":543,"x_min":21,"x_max":524,"o":"m 485 832 q 497 741 497 789 q 490 668 497 693 q 473 631 482 643 q 444 612 464 618 q 413 605 424 606 q 376 606 403 604 q 340 607 349 607 q 254 576 286 607 q 213 447 222 546 q 313 478 250 478 q 466 426 408 478 q 524 264 524 374 q 463 77 524 154 q 296 0 401 0 q 90 102 160 0 q 21 385 21 204 q 117 733 21 640 q 185 785 150 767 q 272 814 219 804 q 485 832 358 832 m 292 149 q 360 255 360 149 q 279 361 360 361 q 207 346 249 361 q 292 149 207 149 z "},"7":{"ha":482,"x_min":18,"x_max":460,"o":"m 460 653 q 408 421 460 590 q 366 283 394 378 q 310 97 338 189 q 253 -32 282 4 q 156 -68 225 -68 q 101 -56 124 -68 q 71 -31 78 -43 l 64 -18 l 271 494 l 104 494 q 18 606 18 494 q 39 718 18 664 l 47 738 l 372 738 q 460 653 460 738 z "},"8":{"ha":542,"x_min":25,"x_max":517,"o":"m 517 597 q 491 472 517 532 q 426 385 465 413 q 515 203 515 321 q 453 57 515 114 q 270 0 392 0 q 91 58 149 0 q 33 199 33 115 q 132 386 33 318 q 25 593 25 465 q 88 765 25 701 q 270 828 150 828 q 453 762 390 828 q 517 597 517 696 m 321 214 q 301 272 321 247 q 239 331 281 297 q 203 218 203 272 q 264 139 203 139 q 321 214 321 139 m 269 619 q 219 542 219 619 q 300 400 219 465 q 324 542 324 464 q 269 619 324 619 z "},"9":{"ha":543,"x_min":21,"x_max":524,"o":"m 60 -53 q 47 21 47 -33 q 77 92 47 75 q 178 110 107 110 q 274 124 250 110 q 329 236 317 150 q 232 210 296 210 q 81 276 140 210 q 21 459 21 343 q 84 656 21 575 q 268 736 147 736 q 524 382 524 736 q 408 -22 524 79 q 233 -83 342 -83 q 60 -53 157 -83 m 186 418 q 201 342 186 369 q 235 310 215 314 q 276 307 254 307 q 338 324 297 307 l 338 338 q 253 539 338 539 q 186 418 186 539 z "}," ":{"ha":311,"x_min":0,"x_max":0,"o":""},"!":{"ha":329,"x_min":49,"x_max":281,"o":"m 171 919 q 281 810 281 919 q 242 411 281 743 l 228 301 q 176 290 199 290 q 119 326 133 290 q 97 456 106 361 l 49 860 q 98 901 61 882 q 171 919 135 919 m 242 185 q 248 179 242 185 q 265 150 254 172 q 275 101 275 128 q 256 49 275 75 q 217 11 236 24 l 196 0 q 71 75 108 22 q 56 119 56 96 q 179 231 56 204 q 209 213 189 228 q 242 185 229 199 z "},"\"":{"ha":463,"x_min":24,"x_max":439,"o":"m 24 883 q 114 919 64 919 q 185 899 164 919 q 206 833 206 878 q 183 608 206 747 l 176 558 q 129 549 150 549 q 57 601 81 549 q 24 883 24 676 m 256 883 q 346 919 296 919 q 417 899 396 919 q 439 833 439 878 q 417 608 439 747 l 410 558 q 364 549 385 549 q 289 603 314 549 q 256 883 256 678 z "},"#":{"ha":701,"x_min":32,"x_max":668,"o":"m 138 413 q 61 503 61 413 q 67 546 61 524 l 81 590 q 174 594 118 592 l 178 632 q 202 717 182 694 q 258 740 222 740 q 343 722 313 740 q 328 600 338 672 l 431 604 l 432 632 q 457 717 438 694 q 511 740 476 740 q 596 722 565 740 q 582 607 590 676 q 646 586 624 607 q 668 536 668 565 q 649 433 668 478 l 640 413 l 561 413 l 546 285 l 547 285 q 613 272 590 285 q 636 239 635 258 q 619 169 639 200 l 611 156 l 531 156 l 526 124 q 498 16 519 43 q 443 -11 476 -11 q 365 6 385 -11 q 382 157 372 71 l 279 157 l 276 125 q 248 11 269 42 q 182 -19 226 -19 q 119 -6 133 -19 l 115 -1 q 131 157 122 67 l 108 157 q 55 168 74 157 q 34 192 36 179 q 32 213 32 204 q 47 268 32 238 q 144 271 89 269 l 157 413 l 138 413 m 310 413 l 294 276 l 399 279 l 413 413 l 310 413 z "},"$":{"ha":522,"x_min":11,"x_max":497,"o":"m 310 7 q 315 -76 315 -35 q 235 -169 315 -169 q 174 -142 201 -169 q 183 4 181 -82 q 55 61 99 18 q 11 144 11 104 q 28 213 11 185 q 64 251 46 242 l 81 261 q 105 230 89 249 q 168 181 121 211 q 249 150 215 150 q 297 160 283 150 q 310 183 310 171 q 266 233 310 207 q 171 283 222 260 q 76 350 119 306 q 32 451 32 394 q 66 560 32 508 q 146 632 100 611 q 186 696 150 667 q 174 806 174 749 q 192 888 174 863 q 254 914 211 914 q 315 886 288 914 q 303 742 308 828 q 328 743 313 743 q 447 708 401 743 q 493 615 493 674 q 476 531 493 557 q 424 489 460 504 q 217 571 363 557 l 217 558 q 317 458 217 503 q 398 416 357 439 q 468 349 439 393 q 497 243 497 306 q 444 88 497 151 q 310 7 392 25 z "},"%":{"ha":1040,"x_min":32,"x_max":1008,"o":"m 349 -22 q 283 29 283 -22 q 318 136 283 67 l 644 744 q 663 747 651 747 q 690 747 675 747 q 721 740 706 746 q 749 718 736 735 q 761 679 761 701 q 760 647 761 657 q 754 622 758 636 q 738 587 750 608 q 710 538 725 565 q 662 460 694 511 q 594 349 629 408 q 499 191 558 290 q 374 -18 439 92 q 349 -22 368 -22 m 447 514 q 388 342 447 403 q 236 281 329 281 q 88 338 143 281 q 32 500 32 396 q 85 670 32 604 q 253 736 139 736 q 447 514 447 736 m 239 372 q 280 399 268 372 q 292 490 292 425 q 279 576 292 554 q 239 599 267 599 q 199 576 211 599 q 188 489 188 554 q 239 372 188 372 m 1008 218 q 949 46 1008 107 q 796 -15 889 -15 q 648 42 703 -15 q 593 204 593 100 q 647 374 593 308 q 814 440 700 440 q 1008 218 1008 440 m 800 76 q 841 103 829 76 q 853 194 853 129 q 840 281 853 258 q 800 303 828 303 q 760 281 772 303 q 747 193 747 258 q 800 76 747 76 z "},"&":{"ha":883,"x_min":44,"x_max":875,"o":"m 567 351 q 683 411 581 411 q 817 426 786 411 q 847 392 833 418 q 861 338 861 367 q 693 232 861 232 q 685 232 689 232 q 850 99 761 163 l 875 81 q 872 72 874 78 q 860 53 869 67 q 839 28 851 39 q 751 0 804 0 q 563 94 667 0 q 346 0 496 0 q 120 76 196 0 q 44 260 44 151 q 93 431 44 369 q 213 514 142 492 q 153 740 153 629 q 220 926 153 850 q 426 1001 288 1001 q 701 736 701 1001 q 629 514 701 585 q 513 456 571 456 q 482 460 497 456 q 567 351 515 410 m 400 681 q 458 497 400 596 q 514 682 514 556 q 498 765 514 738 q 457 793 482 793 q 400 681 400 793 m 285 301 q 428 164 285 164 q 486 168 458 164 l 426 231 q 292 389 349 310 q 285 301 285 360 z "},"'":{"ha":229,"x_min":24,"x_max":206,"o":"m 24 883 q 114 919 64 919 q 185 899 164 919 q 206 833 206 878 q 183 608 206 747 l 176 558 q 129 549 150 549 q 57 601 81 549 q 24 883 24 676 z "},"(":{"ha":476,"x_min":32,"x_max":411,"o":"m 32 475 q 57 723 32 617 q 124 888 82 829 q 313 1001 206 1001 q 381 983 357 1001 q 408 946 406 964 l 411 928 q 314 658 340 833 q 301 468 301 582 q 327 238 301 354 q 378 75 353 121 l 403 29 q 392 7 403 22 q 371 -18 382 -8 q 290 -43 342 -43 q 103 93 174 -43 q 32 475 32 229 z "},")":{"ha":476,"x_min":67,"x_max":444,"o":"m 444 475 q 374 93 444 229 q 188 -43 304 -43 q 116 -25 144 -43 q 81 11 88 -7 l 74 29 q 107 96 88 47 q 139 194 126 144 q 175 497 175 326 q 136 781 175 668 q 78 914 103 879 l 67 928 q 117 994 67 975 q 177 1001 138 1001 q 264 974 217 1001 q 353 888 311 946 q 419 723 394 829 q 444 475 444 617 z "},"*":{"ha":488,"x_min":29,"x_max":458,"o":"m 458 810 q 342 731 458 731 l 404 647 q 389 613 404 631 q 322 581 363 581 q 222 667 256 581 l 161 586 q 101 607 128 586 q 74 672 74 628 q 129 757 74 715 l 36 778 q 29 824 29 794 q 49 873 29 854 q 108 892 69 892 q 181 872 146 892 l 188 990 q 244 1006 210 1006 q 328 918 328 1006 q 321 863 328 900 l 415 885 q 444 857 431 879 q 458 810 458 835 z "},"+":{"ha":588,"x_min":32,"x_max":556,"o":"m 108 283 q 52 308 72 283 q 32 377 32 332 q 60 461 32 422 l 204 461 l 204 549 q 297 633 204 633 q 383 606 344 633 l 383 461 l 478 461 q 556 369 556 461 q 538 306 556 324 q 383 294 467 300 l 383 188 q 292 110 383 110 q 241 119 263 110 q 211 138 219 128 l 204 147 l 204 285 q 141 283 169 283 q 108 283 113 283 z "},",":{"ha":331,"x_min":32,"x_max":299,"o":"m 299 57 q 257 -83 299 -28 q 149 -139 215 -139 q 103 -131 122 -139 q 81 -114 85 -122 l 75 -104 q 96 -24 96 -67 q 80 49 96 18 q 47 92 64 79 l 32 104 q 67 185 32 156 q 165 214 103 214 q 299 57 299 214 z "},"-":{"ha":588,"x_min":32,"x_max":556,"o":"m 108 283 q 52 308 72 283 q 32 377 32 332 q 60 461 32 422 l 478 461 q 556 369 556 461 q 538 306 556 324 q 167 283 221 283 q 108 283 113 283 z "},".":{"ha":331,"x_min":32,"x_max":299,"o":"m 299 107 q 165 0 299 0 q 32 107 32 0 q 165 217 32 217 q 299 107 299 217 z "},"/":{"ha":500,"x_min":-7,"x_max":508,"o":"m 244 132 q 184 9 215 47 q 107 -29 153 -29 q 35 -16 61 -29 q 0 11 8 -3 l -7 24 q 235 799 197 682 q 303 951 272 915 q 388 986 333 986 q 469 961 442 986 q 503 911 497 936 l 508 886 l 244 132 z "},":":{"ha":331,"x_min":32,"x_max":299,"o":"m 299 107 q 165 0 299 0 q 32 107 32 0 q 165 217 32 217 q 299 107 299 217 m 165 736 q 232 736 165 736 q 299 628 299 736 q 165 519 299 519 q 32 628 32 519 q 165 736 32 736 z "},";":{"ha":331,"x_min":32,"x_max":299,"o":"m 299 26 q 257 -115 299 -60 q 149 -169 215 -169 q 103 -161 122 -169 q 81 -144 85 -153 l 75 -136 q 96 -56 96 -97 q 80 17 96 -14 q 47 61 64 47 l 32 74 q 67 153 32 125 q 165 182 103 182 q 299 26 299 182 m 165 736 q 232 736 165 736 q 299 628 299 736 q 165 519 299 519 q 32 628 32 519 q 165 736 32 736 z "},"<":{"ha":568,"x_min":32,"x_max":535,"o":"m 535 197 q 529 166 535 189 q 514 126 524 143 q 481 94 504 108 q 426 79 458 79 q 262 129 357 79 q 99 243 167 179 q 32 345 32 307 q 111 450 32 383 q 417 647 246 560 q 478 614 451 636 q 529 528 529 572 q 456 439 529 485 q 311 371 383 393 l 238 349 l 535 213 l 535 197 z "},"=":{"ha":624,"x_min":32,"x_max":592,"o":"m 275 371 q 85 397 135 371 q 35 485 35 424 q 45 545 35 518 q 67 583 56 572 l 78 593 q 478 568 217 568 q 560 543 536 568 q 585 467 585 518 q 572 385 585 428 q 275 371 504 371 m 178 139 q 64 159 96 139 q 32 238 32 179 q 60 325 32 286 q 394 306 132 306 q 581 264 553 306 q 592 222 592 246 q 583 168 592 188 q 178 139 475 139 z "},">":{"ha":568,"x_min":33,"x_max":536,"o":"m 33 531 q 39 561 33 539 q 54 601 44 583 q 87 633 64 618 q 142 647 110 647 q 306 597 211 647 q 469 483 401 547 q 536 381 536 419 q 456 278 536 343 q 151 79 322 167 q 75 128 110 93 q 40 196 40 163 q 113 288 40 243 q 258 356 186 333 l 331 378 l 33 515 l 33 531 z "},"?":{"ha":439,"x_min":13,"x_max":425,"o":"m 36 681 q 13 735 13 704 q 20 792 13 765 q 49 849 28 819 q 117 899 71 879 q 225 919 163 919 q 425 725 425 919 q 398 606 425 665 q 339 508 371 547 q 280 413 307 468 q 253 304 253 358 q 217 303 240 303 q 169 315 194 303 q 140 349 144 328 q 135 385 135 369 q 137 426 135 401 q 150 486 139 451 q 178 629 178 581 q 118 701 178 701 q 36 681 86 701 m 289 185 q 295 179 289 185 q 312 150 301 172 q 322 101 322 128 q 303 49 322 75 q 264 11 283 24 l 243 0 q 118 75 156 22 q 103 119 103 96 q 226 231 103 204 q 256 213 236 228 q 289 185 276 199 z "},"@":{"ha":881,"x_min":25,"x_max":858,"o":"m 618 57 q 553 69 581 57 q 510 113 514 89 q 494 91 504 103 q 449 62 483 79 q 374 44 415 44 q 259 92 300 44 q 218 235 218 139 q 293 467 218 374 q 496 561 368 561 q 651 404 651 561 q 640 318 651 369 q 625 241 628 267 q 628 201 622 215 q 650 186 633 186 q 685 206 667 186 q 717 277 703 226 q 731 400 731 328 q 493 628 731 628 q 248 521 344 628 q 151 219 151 414 q 218 25 151 85 q 369 -35 285 -35 q 449 -21 415 -35 q 492 7 482 -7 l 503 21 q 542 -49 542 4 q 501 -140 542 -103 q 361 -176 461 -176 q 114 -68 203 -176 q 25 225 25 40 q 142 617 25 460 q 295 739 199 694 q 515 783 392 783 q 776 688 693 783 q 858 423 858 592 q 797 156 858 254 q 618 57 735 57 m 494 381 q 464 404 494 404 q 410 358 433 404 q 388 238 388 311 q 431 165 388 165 q 467 172 442 165 q 465 204 465 178 q 472 269 465 231 q 483 329 478 307 q 494 381 494 364 z "},"A":{"ha":789,"x_min":11,"x_max":776,"o":"m 760 45 q 755 40 760 45 q 713 17 750 35 q 624 0 676 0 q 478 172 508 0 q 362 167 429 167 q 276 171 294 167 q 226 39 258 78 q 128 0 193 0 q 67 11 96 0 q 25 33 38 22 l 11 44 q 164 833 65 697 q 231 892 200 881 q 288 904 261 904 q 321 903 314 904 q 331 903 328 903 l 325 931 q 337 945 329 936 q 378 969 344 954 q 456 985 411 985 q 601 916 547 985 q 697 649 654 847 q 776 63 739 451 q 760 45 771 56 m 300 331 q 393 336 344 336 q 449 335 442 336 q 361 763 399 588 q 300 331 326 571 z "},"B":{"ha":793,"x_min":40,"x_max":771,"o":"m 172 985 q 254 963 219 985 q 314 881 289 942 q 489 993 376 993 q 769 697 769 993 q 733 529 769 600 q 639 421 697 458 q 771 261 771 378 q 688 65 771 131 q 492 0 604 0 q 296 65 379 0 q 186 0 260 0 q 114 15 150 0 q 60 44 78 29 l 42 58 q 56 342 56 119 q 44 879 56 676 l 40 939 q 172 985 82 985 m 347 703 q 353 563 353 619 q 350 418 353 507 q 464 440 389 439 q 506 557 506 494 q 349 703 506 703 l 347 703 m 406 325 l 347 324 q 336 201 344 271 q 421 164 381 164 q 478 183 461 164 q 494 244 494 201 q 466 306 494 286 q 406 325 438 325 z "},"C":{"ha":689,"x_min":26,"x_max":664,"o":"m 656 908 q 663 821 663 843 q 662 775 663 799 q 651 727 661 751 q 625 681 642 703 q 510 638 593 638 q 417 665 453 638 q 350 743 382 692 q 321 506 321 642 q 403 261 321 339 q 510 221 444 221 q 658 254 575 221 q 660 172 668 214 q 633 100 651 129 q 588 50 615 71 q 394 0 521 0 q 106 131 200 0 q 49 259 71 179 q 26 442 26 339 q 97 735 26 621 q 268 899 167 849 q 315 957 282 929 q 403 985 347 985 q 532 947 460 985 q 656 908 604 908 z "},"D":{"ha":833,"x_min":40,"x_max":813,"o":"m 40 939 q 174 985 82 985 q 306 897 267 985 q 483 993 383 993 q 725 876 638 993 q 813 523 813 758 q 706 147 813 288 q 442 7 599 7 q 292 57 356 7 q 186 0 254 0 q 114 15 150 0 q 60 44 78 29 l 42 58 q 56 342 56 119 q 44 879 56 676 l 40 939 m 411 163 q 508 232 468 163 q 547 435 547 301 q 347 707 547 668 q 353 485 353 651 q 335 196 353 318 q 411 163 375 163 z "},"E":{"ha":642,"x_min":17,"x_max":628,"o":"m 526 651 l 331 656 q 321 506 321 596 l 321 496 q 596 500 571 500 q 603 439 603 465 q 519 349 603 349 l 326 349 q 392 231 338 247 q 419 226 403 226 q 589 271 478 226 q 626 187 626 253 q 563 60 626 121 q 354 0 500 0 q 126 76 215 0 q 26 367 26 161 q 88 654 26 525 l 53 651 q 17 786 17 685 q 158 992 17 992 q 203 992 165 992 q 360 978 240 992 q 611 965 481 965 q 628 833 628 924 q 604 697 628 742 q 526 651 581 651 z "},"F":{"ha":668,"x_min":35,"x_max":646,"o":"m 611 457 q 619 356 619 383 q 600 294 619 328 q 535 261 581 261 l 368 261 q 383 78 372 140 q 272 8 358 29 q 190 0 238 0 q 103 34 142 0 q 68 108 65 68 q 88 671 68 328 q 53 679 57 676 q 35 802 35 725 q 76 929 35 879 q 193 979 118 979 q 222 979 201 979 q 368 972 243 979 q 631 965 493 965 q 646 832 646 924 q 611 689 646 740 q 497 638 576 638 q 363 640 418 638 l 363 453 q 611 457 490 457 z "},"G":{"ha":700,"x_min":26,"x_max":683,"o":"m 656 908 q 663 821 663 843 q 662 775 663 799 q 651 727 661 751 q 625 681 642 703 q 510 638 593 638 q 417 665 453 638 q 350 743 382 692 q 321 540 321 642 q 331 389 321 439 q 460 242 357 242 q 510 249 483 242 l 483 408 q 492 424 486 415 q 529 449 499 433 q 603 465 560 465 q 683 392 683 465 l 668 139 q 632 11 663 36 q 551 1 597 -19 l 540 69 q 349 0 471 0 q 136 86 231 0 q 56 224 86 132 q 26 442 26 315 q 97 735 26 621 q 268 899 167 849 q 315 957 282 929 q 403 985 347 985 q 532 947 460 985 q 656 908 604 908 z "},"H":{"ha":851,"x_min":47,"x_max":811,"o":"m 528 957 q 675 996 600 996 q 781 958 750 996 q 811 807 811 919 q 788 429 811 754 q 765 44 765 104 q 618 1 706 1 q 529 74 531 1 q 535 267 532 156 l 336 267 q 335 33 335 196 q 190 1 288 1 q 121 24 147 1 q 92 85 94 46 l 47 924 q 222 985 149 985 q 323 944 294 985 q 351 790 351 904 q 346 617 351 761 q 339 418 340 472 q 403 433 375 432 q 538 438 431 435 q 531 904 538 772 l 528 957 z "},"I":{"ha":458,"x_min":21,"x_max":435,"o":"m 103 646 q 21 801 21 646 q 31 888 21 844 l 46 968 q 319 996 208 996 q 398 961 369 996 q 431 886 426 926 q 435 821 435 846 q 424 694 435 749 l 417 660 q 368 658 383 660 l 342 211 q 397 189 379 210 q 414 142 414 168 q 392 28 414 81 l 382 7 q 143 0 269 0 q 83 19 106 0 q 55 65 60 39 q 50 106 50 92 q 56 169 50 147 l 61 189 l 117 196 l 103 646 z "},"J":{"ha":443,"x_min":7,"x_max":419,"o":"m 147 -153 q 38 -44 38 -153 q 44 7 38 -21 l 106 29 l 85 646 q 28 679 47 646 q 7 764 7 714 q 22 935 7 868 l 31 968 q 304 996 193 996 q 383 961 354 996 q 415 886 411 926 q 419 821 419 846 q 408 694 419 749 l 401 660 q 354 658 369 660 l 322 57 q 279 -106 317 -58 q 147 -153 242 -153 z "},"K":{"ha":792,"x_min":32,"x_max":768,"o":"m 179 985 q 241 978 218 985 q 288 950 264 972 q 325 883 313 928 q 353 578 353 786 q 351 481 353 507 q 411 488 371 488 q 463 706 440 571 q 486 957 486 840 q 605 985 522 985 q 726 949 688 985 q 764 851 764 913 q 717 610 764 739 q 597 404 671 482 l 768 104 q 747 72 765 94 q 711 36 729 50 q 589 0 661 0 q 447 86 483 0 l 344 335 q 308 75 342 161 q 269 24 296 42 q 222 3 243 7 q 164 0 201 0 q 96 9 126 0 q 53 28 65 18 l 42 36 q 56 376 56 189 q 39 878 56 714 l 32 938 q 179 985 89 985 z "},"L":{"ha":551,"x_min":21,"x_max":535,"o":"m 481 294 q 535 185 535 274 q 499 61 535 122 q 401 0 463 0 l 167 11 q 71 0 113 11 q 21 143 21 69 q 82 226 21 217 l 42 939 q 218 1001 143 1001 q 334 959 293 1001 q 375 807 375 917 q 354 263 375 550 l 481 294 z "},"M":{"ha":1029,"x_min":33,"x_max":1000,"o":"m 89 963 q 98 967 89 963 q 140 978 107 971 q 212 985 172 985 q 269 968 251 985 q 329 976 292 976 q 433 900 408 976 q 526 357 461 811 q 626 874 601 789 q 693 975 651 960 q 761 976 721 983 q 838 985 797 985 q 970 950 940 985 q 1000 831 1000 915 q 982 500 1000 828 q 964 26 964 172 q 826 0 911 0 q 739 85 742 0 l 728 597 q 531 57 626 57 l 511 57 q 442 97 471 57 q 299 607 376 183 q 278 26 278 256 q 169 1 228 1 q 68 85 72 1 l 33 924 q 54 944 38 932 q 89 963 71 956 z "},"N":{"ha":924,"x_min":47,"x_max":872,"o":"m 578 954 q 708 996 618 996 q 835 957 797 996 q 872 816 872 918 q 849 439 872 714 q 826 44 826 164 q 669 1 771 1 q 606 19 622 1 q 331 560 479 44 q 321 33 321 271 q 195 1 294 1 q 92 85 96 1 l 47 924 q 229 985 149 985 q 293 971 269 985 q 329 976 313 976 q 417 917 389 976 q 482 714 444 858 q 530 531 519 569 q 558 425 540 493 q 594 293 576 357 q 597 504 597 414 q 585 881 597 756 l 578 954 z "},"O":{"ha":838,"x_min":26,"x_max":813,"o":"m 26 428 q 54 637 26 544 q 128 783 82 729 q 314 913 215 889 q 483 985 371 985 q 725 867 638 985 q 813 513 813 749 q 694 138 813 278 q 399 -1 576 -1 q 124 107 222 -1 q 26 428 26 215 m 435 161 q 517 232 488 161 q 547 436 547 303 q 490 649 547 569 q 353 765 432 728 q 318 478 318 632 q 435 161 318 161 z "},"P":{"ha":793,"x_min":40,"x_max":769,"o":"m 172 985 q 254 963 219 985 q 314 881 289 942 q 489 993 376 993 q 701 909 633 993 q 769 642 769 825 q 676 331 769 458 q 425 203 583 203 q 338 214 367 203 q 285 48 321 96 q 186 0 250 0 q 114 15 150 0 q 60 44 78 29 l 42 58 q 56 342 56 119 q 44 879 56 676 l 40 939 q 172 985 82 985 m 347 703 q 353 515 353 619 q 347 321 353 411 q 460 397 419 339 q 500 542 500 454 q 455 666 500 629 q 349 703 410 703 l 347 703 z "},"Q":{"ha":838,"x_min":26,"x_max":813,"o":"m 394 -1 q 124 107 222 -1 q 26 428 26 215 q 54 637 26 544 q 128 783 82 729 q 314 913 215 889 q 483 985 371 985 q 725 867 638 985 q 813 508 813 749 q 651 94 813 233 q 711 15 664 68 q 781 -58 758 -37 q 777 -70 779 -62 q 765 -97 775 -78 q 742 -131 756 -117 q 633 -169 706 -169 q 526 -101 561 -169 l 472 6 q 394 -1 442 -1 m 435 161 q 517 232 488 161 q 547 436 547 303 q 490 649 547 569 q 353 765 432 728 q 318 478 318 632 q 435 161 318 161 z "},"R":{"ha":793,"x_min":40,"x_max":781,"o":"m 172 985 q 253 964 219 985 q 313 883 288 943 q 524 993 382 993 q 701 911 633 993 q 769 679 769 829 q 734 478 769 571 q 633 326 699 385 q 684 251 642 318 q 781 133 726 185 q 767 91 781 118 q 736 47 753 64 q 685 15 719 29 q 606 0 650 0 q 474 78 515 0 l 390 250 q 342 257 374 251 q 292 58 328 115 q 186 0 256 0 q 114 15 150 0 q 60 44 78 29 l 42 58 q 56 342 56 119 q 44 879 56 676 l 40 939 q 172 985 82 985 m 349 696 q 353 544 353 638 q 349 365 353 450 q 504 568 504 388 q 469 674 504 651 q 349 696 435 696 z "},"S":{"ha":717,"x_min":42,"x_max":693,"o":"m 678 292 q 590 82 678 164 q 339 0 503 0 q 108 48 175 0 q 42 154 42 96 q 56 231 42 207 q 101 285 79 271 q 226 211 156 244 q 332 178 296 178 q 383 185 368 178 q 401 199 399 192 q 404 221 404 207 q 367 272 404 247 q 276 322 329 296 q 169 380 222 347 q 79 469 117 413 q 42 595 42 526 q 74 722 42 664 q 154 818 106 781 q 234 938 157 885 q 446 990 311 990 q 693 783 693 990 q 582 611 693 657 q 297 733 506 694 q 378 600 303 653 q 453 555 413 576 q 533 510 493 533 q 606 458 572 486 q 678 292 678 396 z "},"T":{"ha":614,"x_min":17,"x_max":597,"o":"m 582 951 q 597 824 597 922 q 574 681 597 726 q 497 636 551 636 l 436 636 q 468 40 440 242 q 299 0 400 0 q 202 24 240 0 q 165 85 164 47 q 188 643 165 288 q 53 636 97 640 q 17 772 17 669 q 51 926 17 874 q 161 978 86 978 q 206 978 168 978 q 514 958 300 978 l 582 951 z "},"U":{"ha":838,"x_min":26,"x_max":817,"o":"m 26 496 q 38 627 26 563 q 60 722 49 692 l 71 754 l 47 860 q 94 917 57 889 q 224 946 136 946 q 347 917 311 946 q 382 832 382 888 q 358 686 382 803 q 335 439 335 569 q 362 235 335 308 q 438 161 389 161 q 517 232 488 161 q 547 440 547 303 q 527 698 547 578 q 486 871 507 818 l 467 924 q 477 940 467 928 q 500 961 488 953 q 588 981 533 981 q 817 569 817 981 q 776 266 817 392 q 641 66 736 140 q 399 -8 546 -8 q 116 128 206 -8 q 26 496 26 264 z "},"V":{"ha":790,"x_min":19,"x_max":768,"o":"m 192 985 q 319 930 275 985 q 378 726 363 875 q 403 493 378 656 q 441 278 428 331 q 471 182 454 226 q 554 975 554 671 q 663 1003 618 1003 q 768 849 768 1003 q 711 378 768 676 q 629 128 683 232 q 508 25 575 25 l 500 25 q 401 0 460 0 q 317 4 343 0 q 259 28 292 8 q 206 88 226 47 q 164 200 186 129 q 96 646 125 322 q 76 735 94 696 q 39 789 57 775 l 22 803 q 23 815 25 804 q 21 837 21 826 q 28 871 21 847 q 49 921 36 894 q 100 966 63 947 q 192 985 138 985 z "},"W":{"ha":1243,"x_min":22,"x_max":1218,"o":"m 922 25 l 917 25 q 826 0 882 0 q 710 89 750 0 q 640 413 671 178 q 451 25 575 25 q 433 26 439 25 q 320 0 388 0 q 210 52 253 0 q 140 242 167 104 q 96 646 113 379 q 76 735 94 696 q 39 789 57 775 l 22 803 q 33 862 22 826 q 61 922 44 897 q 113 965 78 946 q 196 985 149 985 q 372 788 349 985 q 383 597 382 696 q 426 183 385 308 q 536 843 518 539 q 531 886 531 863 q 547 936 531 910 q 649 978 574 978 q 763 938 725 978 q 818 790 801 897 q 907 182 849 403 q 967 642 967 390 q 946 956 967 790 q 1063 985 985 985 q 1133 974 1099 985 q 1192 919 1167 963 q 1218 804 1218 876 q 1190 490 1218 639 q 1119 242 1163 342 q 1024 83 1076 142 q 922 25 972 25 z "},"X":{"ha":774,"x_min":19,"x_max":764,"o":"m 764 856 q 764 823 764 856 q 713 662 764 790 q 594 456 663 533 l 760 96 q 739 67 757 88 q 703 33 721 46 q 593 0 654 0 q 460 64 504 0 q 351 346 415 128 l 303 28 q 197 0 269 0 q 56 115 56 0 q 94 253 56 146 q 182 451 132 360 l 19 867 q 39 903 24 881 q 72 939 54 925 q 208 979 124 979 q 326 917 293 979 q 439 521 369 835 l 518 957 q 646 985 557 985 q 747 949 725 985 q 764 856 764 922 z "},"Y":{"ha":793,"x_min":19,"x_max":764,"o":"m 719 675 q 535 286 615 364 q 558 40 544 133 q 389 0 490 0 q 292 24 331 0 q 254 85 253 47 q 260 285 254 194 q 224 340 236 307 l 19 867 q 39 903 24 881 q 72 939 54 925 q 203 979 124 979 q 294 933 264 979 q 344 815 328 882 q 369 703 360 747 q 393 582 378 658 q 422 444 408 506 l 518 957 q 646 985 557 985 q 747 949 725 985 q 764 865 764 922 q 719 675 764 807 z "},"Z":{"ha":681,"x_min":35,"x_max":654,"o":"m 306 653 q 271 654 297 653 q 192 656 244 656 q 69 640 140 656 q 35 796 35 701 q 206 992 35 992 q 433 984 299 992 q 607 976 567 976 q 620 963 613 972 q 641 908 628 953 q 654 791 654 864 q 600 676 654 718 q 553 564 590 624 q 483 467 517 504 q 380 360 450 431 q 283 261 310 290 q 432 244 419 244 q 617 264 507 244 q 635 145 635 185 q 625 85 635 106 q 594 43 615 65 q 455 0 556 0 q 288 9 354 0 q 200 28 222 18 l 178 36 q 122 0 165 0 q 58 35 79 0 q 36 94 36 69 q 83 221 36 175 q 200 414 101 289 q 300 535 235 457 q 392 646 365 614 q 351 649 388 646 l 306 653 z "},"[":{"ha":549,"x_min":81,"x_max":468,"o":"m 288 760 l 288 176 q 319 82 288 115 q 439 49 351 49 q 456 -131 456 -14 q 303 -162 422 -162 q 133 -94 185 -162 q 81 138 81 -25 l 81 776 q 133 1007 81 939 q 296 1075 185 1075 q 453 1064 407 1075 l 468 1061 q 446 886 468 960 l 439 864 q 318 840 349 864 q 288 760 288 817 z "},"\\":{"ha":500,"x_min":-7,"x_max":508,"o":"m 103 986 q 197 951 167 986 q 260 824 228 915 l 508 24 q 500 9 506 18 q 467 -15 494 0 q 393 -29 439 -29 q 317 9 347 -29 q 256 132 286 47 l -7 886 q 1 917 -7 897 q 20 951 10 938 q 53 975 31 964 q 103 986 75 986 z "},"]":{"ha":549,"x_min":81,"x_max":468,"o":"m 263 153 l 263 736 q 230 831 263 797 q 110 864 197 864 q 94 1044 94 926 q 245 1075 126 1075 q 416 1007 364 1075 q 468 776 468 939 l 468 138 q 416 -94 468 -25 q 253 -162 364 -162 q 96 -153 142 -162 l 81 -149 q 103 25 81 -39 l 110 49 q 231 72 200 49 q 263 153 263 96 z "},"^":{"ha":571,"x_min":49,"x_max":522,"o":"m 211 673 q 205 662 211 673 q 181 638 199 651 q 133 625 163 625 q 81 649 104 625 q 53 694 57 672 l 49 718 q 122 858 74 760 q 204 997 171 956 q 287 1038 238 1038 q 394 978 336 1038 q 488 844 453 919 q 522 725 522 769 q 496 651 522 681 q 427 622 469 622 q 342 642 385 622 q 324 742 342 685 q 289 836 307 800 l 272 874 l 269 857 q 240 732 256 769 q 211 673 224 694 z "},"_":{"ha":496,"x_min":17,"x_max":481,"o":"m 410 -3 q 458 -17 436 -3 q 481 -67 481 -31 q 453 -122 481 -103 l 90 -122 q 38 -104 58 -122 q 17 -56 17 -86 q 35 -3 17 -26 l 410 -3 z "},"`":{"ha":539,"x_min":97,"x_max":442,"o":"m 209 1068 q 188 1076 209 1068 q 132 1113 167 1085 q 97 1170 97 1140 q 110 1225 97 1200 q 136 1260 122 1250 l 149 1269 q 181 1259 161 1265 q 251 1231 200 1253 q 340 1188 301 1210 q 410 1135 378 1167 q 442 1082 442 1104 q 419 1011 442 1044 q 385 1017 407 1014 q 307 1036 363 1021 q 209 1068 251 1051 z "},"a":{"ha":585,"x_min":42,"x_max":572,"o":"m 328 418 q 218 517 328 517 q 88 476 156 517 q 65 531 65 499 q 84 599 65 564 q 134 665 103 633 q 214 716 165 696 q 317 736 263 736 q 483 668 425 736 q 542 474 542 600 l 542 156 l 572 85 q 557 61 567 75 q 514 24 547 47 q 444 0 481 0 q 335 100 354 0 q 208 0 289 0 q 84 51 126 0 q 42 183 42 101 q 328 408 42 396 l 328 418 m 215 235 q 253 165 215 181 q 271 161 261 161 q 328 193 299 161 l 328 346 q 215 235 215 319 z "},"b":{"ha":629,"x_min":14,"x_max":585,"o":"m 257 803 l 257 667 q 399 736 314 736 q 535 681 485 736 q 585 531 585 626 l 585 314 q 493 94 585 189 q 276 0 401 0 q 109 62 174 0 q 44 200 44 124 l 44 692 q 22 883 44 807 l 14 910 q 30 928 19 917 q 75 958 40 939 q 147 976 110 976 q 257 803 257 976 m 371 176 l 371 432 q 346 534 371 508 q 257 560 321 560 l 257 272 q 371 176 257 176 z "},"c":{"ha":515,"x_min":33,"x_max":501,"o":"m 483 193 q 499 153 499 178 q 489 103 499 128 q 458 56 479 79 q 395 16 436 32 q 302 0 354 0 q 206 16 250 0 q 121 67 161 32 q 33 322 33 144 q 94 584 33 499 q 231 676 154 669 q 363 736 293 736 q 456 699 410 736 q 501 613 501 661 q 467 519 501 564 q 379 457 433 475 q 243 554 318 522 l 243 424 q 306 233 243 292 q 433 189 353 189 q 483 193 457 189 z "},"d":{"ha":622,"x_min":44,"x_max":599,"o":"m 569 803 l 569 156 l 599 85 q 583 61 593 75 q 541 24 574 47 q 471 0 508 0 q 367 78 393 0 q 236 0 322 0 q 97 56 150 0 q 44 194 44 113 l 44 408 q 124 627 44 546 q 318 708 203 708 q 357 704 336 708 q 332 882 354 792 l 325 910 q 341 928 331 917 q 386 958 351 939 q 460 976 421 976 q 569 803 569 976 m 243 272 q 267 192 243 218 q 357 163 292 167 l 357 465 q 326 522 353 503 q 243 551 299 540 l 243 272 z "},"e":{"ha":563,"x_min":33,"x_max":540,"o":"m 519 199 q 535 158 535 183 q 522 108 535 133 q 483 58 508 82 q 410 17 457 33 q 306 0 363 0 q 206 16 250 0 q 121 67 161 32 q 33 321 33 144 q 93 583 33 497 q 229 676 153 668 q 363 736 285 736 q 491 679 442 736 q 540 524 540 622 q 456 342 540 408 q 289 257 386 286 q 450 193 338 193 q 519 199 482 193 m 347 456 q 243 549 347 540 l 243 424 q 254 324 243 361 q 347 456 347 375 z "},"f":{"ha":488,"x_min":14,"x_max":485,"o":"m 456 567 q 464 497 464 525 q 460 450 464 469 q 439 412 456 431 q 389 393 422 393 q 304 397 356 393 q 306 175 306 325 q 267 -33 306 25 q 151 -90 229 -90 q 77 -73 106 -90 q 42 -39 49 -56 l 36 -21 q 77 44 58 1 q 96 125 96 88 q 89 425 96 276 q 60 428 76 426 q 34 431 44 429 q 17 432 24 432 q 14 449 14 439 q 79 571 14 540 q 71 736 71 732 q 141 910 71 829 q 318 990 211 990 q 485 864 485 990 q 467 767 485 822 q 301 768 301 826 l 303 579 q 456 567 418 567 z "},"g":{"ha":607,"x_min":44,"x_max":563,"o":"m 349 151 q 220 90 303 90 q 91 142 138 90 q 44 276 44 193 l 44 422 q 103 576 44 501 q 219 671 163 650 q 354 736 279 736 q 497 689 444 736 q 557 613 543 646 l 563 599 l 563 138 q 495 -90 563 -10 q 296 -169 428 -169 q 181 -147 226 -169 q 126 -97 136 -124 q 117 -53 117 -69 q 120 -16 117 -37 q 146 28 124 6 q 251 -8 193 -8 q 349 83 349 -8 l 349 151 m 243 335 q 349 224 243 229 l 349 499 q 243 558 329 539 l 243 335 z "},"h":{"ha":658,"x_min":14,"x_max":629,"o":"m 257 164 q 274 63 257 96 q 227 20 265 40 q 142 0 189 0 q 70 28 96 0 q 44 106 44 57 l 44 692 q 22 883 44 807 l 14 910 q 30 928 19 917 q 75 958 40 939 q 147 976 110 976 q 257 803 257 976 l 257 640 q 317 708 275 681 q 428 736 358 736 q 549 681 499 736 q 599 531 599 626 l 599 156 l 629 85 q 614 61 624 75 q 571 24 604 47 q 500 0 538 0 q 386 164 386 0 l 386 432 q 358 535 386 508 q 257 561 331 561 l 257 164 z "},"i":{"ha":311,"x_min":22,"x_max":288,"o":"m 158 0 q 44 164 44 0 q 54 713 44 581 q 147 742 83 742 q 257 568 257 742 l 257 156 l 288 85 q 272 61 282 75 q 229 24 263 47 q 158 0 196 0 m 263 938 q 263 909 263 938 q 235 844 263 881 q 151 807 207 807 q 67 848 94 807 q 22 974 40 889 q 38 998 28 983 q 80 1037 47 1013 q 147 1061 113 1061 q 237 1028 211 1061 q 263 938 263 996 z "},"j":{"ha":319,"x_min":-8,"x_max":268,"o":"m 84 722 q 105 732 84 722 q 167 742 126 742 q 237 706 207 742 q 267 624 267 669 l 267 10 q 221 -118 267 -69 q 107 -167 175 -167 q -8 -90 -8 -167 q 18 -15 -8 -47 l 67 -28 l 53 581 l 22 676 q 84 722 42 701 m 268 911 q 235 829 268 858 q 142 800 203 800 q 53 839 82 800 q 7 958 25 878 q 70 1008 31 986 q 144 1031 110 1031 q 268 911 268 1031 z "},"k":{"ha":633,"x_min":31,"x_max":636,"o":"m 275 164 q 292 63 275 96 q 245 20 283 40 q 160 0 207 0 q 88 28 114 0 q 63 106 63 57 l 63 692 q 39 883 63 811 l 31 910 q 47 928 36 917 q 92 958 57 939 q 165 976 128 976 q 275 803 275 976 l 275 369 q 335 394 304 389 q 406 717 374 514 q 515 735 446 735 q 610 636 610 735 q 569 488 610 583 q 469 338 529 392 l 553 208 q 614 122 593 150 l 636 93 q 556 10 615 32 q 500 0 531 0 q 392 68 426 0 l 275 289 l 275 164 z "},"l":{"ha":311,"x_min":14,"x_max":288,"o":"m 44 164 l 44 692 q 22 883 44 807 l 14 910 q 30 928 19 917 q 75 958 40 939 q 147 976 110 976 q 257 803 257 976 l 257 156 l 288 85 q 272 61 282 75 q 229 24 263 47 q 158 0 196 0 q 44 164 44 0 z "},"m":{"ha":972,"x_min":14,"x_max":942,"o":"m 257 164 q 274 63 257 96 q 227 20 265 40 q 142 0 189 0 q 70 28 96 0 q 44 106 44 57 l 44 458 q 22 650 44 574 l 14 676 q 30 694 19 683 q 75 724 40 706 q 147 742 110 742 q 249 647 228 742 q 409 736 296 736 q 568 633 522 736 q 626 706 585 676 q 740 736 668 736 q 863 681 813 736 q 913 531 913 626 l 913 156 l 942 85 q 926 61 936 75 q 884 24 917 47 q 814 0 851 0 q 699 164 699 0 l 699 432 q 674 532 699 506 q 586 561 649 558 l 588 531 l 588 164 q 604 63 588 99 q 592 45 600 56 q 551 17 585 35 q 472 0 518 0 q 399 29 425 0 q 374 106 374 58 l 374 432 q 349 532 374 506 q 257 561 324 558 l 257 164 z "},"n":{"ha":658,"x_min":14,"x_max":629,"o":"m 257 164 q 274 63 257 96 q 227 20 265 40 q 142 0 189 0 q 70 28 96 0 q 44 106 44 57 l 44 458 q 22 650 44 574 l 14 676 q 30 694 19 683 q 75 724 40 706 q 147 742 110 742 q 253 631 235 742 q 310 705 268 674 q 426 736 353 736 q 549 681 499 736 q 599 531 599 626 l 599 156 l 629 85 q 614 61 624 75 q 571 24 604 47 q 500 0 538 0 q 386 164 386 0 l 386 432 q 358 535 386 508 q 257 561 331 561 l 257 164 z "},"o":{"ha":608,"x_min":29,"x_max":579,"o":"m 579 403 q 493 103 579 207 q 278 0 407 0 q 115 64 188 0 q 53 165 76 97 q 29 325 29 232 q 82 540 29 465 q 196 629 135 614 q 289 725 218 697 q 360 736 321 736 q 579 403 579 736 m 228 378 q 303 167 228 167 q 369 365 369 167 q 338 502 369 463 q 251 542 307 542 q 228 378 228 497 z "},"p":{"ha":643,"x_min":14,"x_max":599,"o":"m 257 -151 q 153 -182 213 -182 q 69 -158 93 -182 q 44 -82 44 -135 l 44 581 l 14 676 q 30 694 19 683 q 75 724 40 706 q 147 742 110 742 q 244 663 219 742 q 409 736 318 736 q 549 680 500 736 q 599 531 599 624 l 599 350 q 499 111 599 222 q 276 0 399 0 l 257 0 l 257 -151 m 257 178 q 311 161 278 161 q 365 182 344 161 q 386 240 386 203 l 386 442 q 350 542 386 515 q 304 556 328 556 q 257 549 281 556 l 257 178 z "},"q":{"ha":621,"x_min":44,"x_max":592,"o":"m 464 -169 q 349 -6 349 -169 l 349 51 q 227 0 304 0 q 97 56 150 0 q 44 194 44 113 l 44 422 q 103 576 44 501 q 219 671 163 650 q 354 736 279 736 q 497 689 444 736 q 557 613 543 646 l 563 599 l 563 -14 l 592 -83 q 576 -108 586 -93 q 533 -146 567 -122 q 464 -169 500 -169 m 243 272 q 266 194 243 221 q 349 163 289 168 l 349 499 q 243 558 329 539 l 243 272 z "},"r":{"ha":531,"x_min":14,"x_max":508,"o":"m 158 0 q 44 164 44 0 l 44 581 l 14 676 q 30 694 19 683 q 75 724 40 706 q 147 742 110 742 q 253 631 235 742 q 415 736 321 736 q 508 647 508 736 q 475 519 508 569 q 411 449 444 475 q 257 524 346 507 l 257 156 l 288 85 q 272 61 282 75 q 229 24 263 47 q 158 0 196 0 z "},"s":{"ha":522,"x_min":11,"x_max":497,"o":"m 217 558 q 317 458 217 503 q 398 416 357 439 q 468 349 439 393 q 497 243 497 306 q 423 67 497 133 q 240 0 349 0 q 71 48 131 0 q 11 149 11 96 q 28 213 11 185 q 64 251 46 242 l 81 261 q 105 230 89 249 q 168 181 121 211 q 249 150 215 150 q 297 160 283 150 q 310 183 310 171 q 266 233 310 207 q 171 283 222 260 q 76 350 119 306 q 32 451 32 394 q 66 560 32 508 q 146 632 100 611 q 202 710 153 676 q 326 743 251 743 q 447 708 401 743 q 493 615 493 674 q 476 531 493 557 q 424 489 460 504 q 217 571 363 557 l 217 558 z "},"t":{"ha":436,"x_min":14,"x_max":424,"o":"m 410 706 q 424 633 424 671 q 422 577 424 594 q 404 540 419 560 q 364 519 389 519 q 292 522 339 519 l 292 318 q 410 138 292 182 q 374 43 410 86 q 278 0 339 0 q 135 65 189 0 q 81 235 81 131 l 81 538 q 15 561 44 547 l 14 578 q 79 704 14 672 q 56 856 74 800 l 50 875 q 66 893 56 882 q 111 922 76 904 q 183 940 146 940 q 292 767 292 940 l 292 710 q 410 706 336 706 z "},"u":{"ha":625,"x_min":14,"x_max":603,"o":"m 390 722 q 412 732 390 722 q 473 742 433 742 q 542 706 513 742 q 572 624 572 669 l 572 156 l 603 85 q 588 61 597 75 q 544 24 578 47 q 474 0 511 0 q 367 93 389 0 q 315 27 350 54 q 232 0 281 0 q 97 53 149 0 q 44 190 44 107 l 44 581 l 14 676 q 76 722 33 701 q 158 742 118 742 q 228 706 199 742 q 257 624 257 669 l 257 286 q 276 201 257 226 q 360 175 294 176 l 360 581 l 328 676 q 390 722 347 701 z "},"v":{"ha":614,"x_min":14,"x_max":569,"o":"m 313 642 q 439 736 344 736 q 535 699 501 736 q 569 593 569 663 l 569 339 q 504 173 569 256 q 385 75 439 90 q 251 0 322 0 q 101 63 157 0 q 44 217 44 125 l 44 451 q 22 644 44 567 l 14 669 q 30 688 19 676 q 75 717 40 699 q 147 736 110 736 q 257 563 257 736 l 257 308 q 371 164 257 182 l 371 488 q 356 584 371 546 q 328 632 342 622 l 313 642 z "},"w":{"ha":926,"x_min":14,"x_max":882,"o":"m 313 642 q 439 736 344 736 q 535 699 501 736 q 569 593 569 663 l 569 308 q 683 164 569 183 l 683 488 q 668 584 683 546 q 639 632 653 622 l 624 642 q 751 736 656 736 q 848 699 814 736 q 882 593 882 663 l 882 339 q 821 179 882 258 q 704 78 760 100 q 564 0 649 0 q 396 92 440 0 q 332 27 372 54 q 251 0 292 0 q 101 63 157 0 q 44 217 44 125 l 44 451 q 22 644 44 567 l 14 669 q 30 688 19 676 q 75 717 40 699 q 147 736 110 736 q 257 563 257 736 l 257 308 q 374 164 257 179 q 371 213 371 178 l 371 488 q 356 584 371 546 q 328 632 342 622 l 313 642 z "},"x":{"ha":611,"x_min":11,"x_max":599,"o":"m 325 642 q 451 736 357 736 q 583 593 583 736 q 481 371 583 463 q 568 181 568 318 q 592 81 568 119 l 599 67 q 547 22 585 43 q 472 0 510 0 q 354 150 354 0 q 322 250 354 218 q 226 308 290 282 l 226 249 q 286 94 226 128 q 158 0 254 0 q 62 37 96 0 q 28 143 28 74 q 121 354 28 258 q 43 522 43 406 q 19 653 43 606 l 11 669 l 29 688 q 74 717 40 699 q 139 736 107 736 q 227 696 199 736 q 256 563 256 656 q 296 457 256 489 q 385 411 326 432 l 385 500 q 370 587 385 551 q 340 632 356 622 l 325 642 z "},"y":{"ha":617,"x_min":14,"x_max":572,"o":"m 35 -107 q 28 -47 28 -72 q 35 -1 28 -22 q 67 39 42 21 q 131 57 92 57 q 218 32 169 57 q 294 7 267 7 q 360 89 360 7 l 360 154 q 232 89 324 89 q 92 139 140 89 q 44 263 44 189 l 44 581 l 14 676 q 76 722 33 701 q 158 742 118 742 q 228 706 199 742 q 257 624 257 669 l 257 310 q 281 246 257 261 q 360 229 306 231 l 360 581 l 328 676 q 390 722 347 701 q 473 742 433 742 q 542 706 513 742 q 572 624 572 669 l 572 138 q 502 -84 572 -8 q 293 -160 432 -160 q 147 -133 215 -160 q 35 -107 78 -107 z "},"z":{"ha":518,"x_min":35,"x_max":501,"o":"m 471 729 q 499 625 499 681 q 495 583 499 611 q 468 533 492 556 q 376 353 447 478 q 285 192 306 229 q 499 181 469 181 l 501 119 q 454 11 501 40 q 405 0 435 0 q 306 6 375 0 q 182 13 236 13 q 92 0 128 13 q 49 39 64 10 q 35 88 35 68 q 89 181 35 157 q 144 279 104 208 q 265 510 235 442 l 54 510 q 39 602 39 564 q 43 664 39 640 q 71 712 47 688 q 126 736 94 736 q 254 733 157 736 q 471 729 351 729 z "},"{":{"ha":525,"x_min":32,"x_max":493,"o":"m 340 1031 q 458 1008 424 1031 q 493 937 493 985 q 476 850 493 889 q 350 813 379 850 q 321 657 321 776 q 304 472 321 538 q 339 401 339 443 q 330 315 339 360 q 321 242 321 271 q 353 161 321 181 q 468 142 385 142 q 485 60 485 117 q 451 -31 485 4 q 313 -67 417 -67 q 100 142 100 -67 q 138 368 100 236 q 55 394 78 374 q 32 440 32 414 q 43 508 32 483 q 138 604 138 535 q 119 698 138 626 q 100 818 100 769 q 159 979 100 928 q 340 1031 218 1031 z "},"|":{"ha":394,"x_min":81,"x_max":281,"o":"m 81 869 q 115 965 81 933 q 199 996 150 996 q 281 968 247 996 l 281 171 q 252 -31 278 26 q 164 -89 226 -89 q 110 -75 129 -89 q 95 440 110 35 q 81 869 81 846 z "},"}":{"ha":526,"x_min":32,"x_max":493,"o":"m 32 33 q 49 115 32 76 q 175 152 146 115 q 204 290 204 189 q 221 464 204 392 q 188 535 188 494 q 196 635 188 576 q 204 722 204 693 q 172 803 204 783 q 57 824 140 824 q 42 905 42 849 q 75 996 42 961 q 214 1031 108 1031 q 425 824 425 1031 q 389 568 425 694 q 470 542 447 563 q 493 496 493 522 q 483 428 493 450 q 389 333 389 403 q 403 239 389 310 q 418 121 418 168 q 364 -17 418 33 q 200 -67 310 -67 q 32 33 32 -67 z "},"~":{"ha":492,"x_min":24,"x_max":468,"o":"m 386 550 q 468 463 468 550 q 427 340 468 393 q 306 288 386 288 q 226 308 264 288 q 172 347 189 328 l 156 368 q 153 356 154 364 l 149 331 q 140 293 146 314 q 106 289 125 289 q 24 385 24 289 q 59 486 24 439 q 145 533 94 533 q 238 513 196 533 q 300 472 281 493 l 321 453 l 350 546 q 386 550 365 550 z "},"¡":{"ha":439,"x_min":14,"x_max":425,"o":"m 401 82 q 425 27 425 58 q 418 -31 425 -4 q 389 -87 411 -57 q 322 -137 367 -117 q 214 -157 276 -157 q 14 39 14 -157 q 41 157 14 99 q 100 255 68 215 q 159 349 132 294 q 186 458 186 404 q 222 460 199 460 q 269 447 244 460 q 299 414 294 435 q 304 377 304 393 q 302 336 304 361 q 289 276 300 311 q 261 133 261 182 q 319 60 261 60 q 401 82 351 60 m 150 577 q 144 584 150 577 q 127 613 138 590 q 117 661 117 635 q 136 713 117 688 q 175 750 156 739 l 196 763 q 321 689 283 740 q 336 643 336 667 q 213 532 336 558 q 183 549 203 535 q 150 577 163 564 z "},"¢":{"ha":515,"x_min":33,"x_max":501,"o":"m 203 789 q 203 818 203 789 q 222 874 203 847 q 280 900 240 900 q 344 872 319 900 q 336 733 339 808 q 363 736 353 736 q 456 699 410 736 q 501 613 501 661 q 467 519 501 564 q 379 457 433 475 q 243 554 318 522 l 243 424 q 306 233 243 292 q 433 189 353 189 q 483 193 457 189 q 499 149 499 178 q 483 90 499 121 q 431 34 468 60 q 340 1 393 8 q 344 -74 344 -28 q 330 -145 344 -121 q 274 -169 315 -169 q 214 -142 242 -169 q 224 8 221 -81 q 33 331 33 61 q 87 573 33 489 q 214 672 140 657 q 203 789 203 731 z "},"£":{"ha":521,"x_min":14,"x_max":492,"o":"m 394 526 l 333 529 q 287 506 307 529 q 267 428 267 483 l 263 388 l 425 401 q 447 331 447 383 q 426 258 447 278 q 364 239 406 239 l 238 239 l 229 175 q 443 183 367 175 l 472 188 q 492 125 492 172 q 371 0 492 0 l 181 0 q 33 128 33 0 l 33 129 q 70 181 61 163 q 81 239 79 200 l 32 239 q 14 293 14 257 q 26 340 14 329 q 75 365 38 351 q 64 533 64 457 q 124 693 64 640 q 324 746 183 746 q 415 736 357 746 l 432 733 q 460 635 460 703 q 440 547 460 567 q 394 526 421 526 z "},"¤":{"ha":649,"x_min":28,"x_max":621,"o":"m 532 740 q 621 660 621 740 q 576 532 621 604 q 613 365 613 474 q 553 189 613 257 l 613 90 q 613 82 613 88 q 612 63 614 76 q 603 40 610 50 q 539 14 583 14 q 389 100 471 14 q 317 94 361 94 q 236 103 274 94 q 142 22 175 44 l 128 13 q 111 14 124 15 q 88 13 99 13 q 52 30 76 13 q 28 88 28 47 q 78 204 28 128 q 36 381 36 274 q 92 554 36 489 l 38 671 q 63 719 38 696 q 128 742 88 742 q 197 724 169 742 q 263 646 224 706 q 333 651 292 651 q 408 644 374 651 l 485 735 q 532 740 507 740 m 336 240 q 403 367 403 240 q 333 494 403 494 q 261 372 261 494 q 281 268 261 296 q 336 240 301 240 z "},"¥":{"ha":793,"x_min":19,"x_max":764,"o":"m 168 199 q 83 209 108 199 q 58 244 58 219 q 79 283 58 268 l 218 283 l 19 624 q 39 660 24 638 q 72 697 54 682 q 194 736 124 736 q 294 713 264 736 q 355 613 325 690 q 428 351 385 535 l 518 714 q 646 742 557 742 q 747 706 725 742 q 764 625 764 678 q 625 315 764 519 q 603 283 607 289 l 643 283 q 760 235 760 283 l 751 210 q 536 201 676 204 q 539 167 539 179 l 643 167 q 760 118 760 167 l 751 93 q 544 85 679 89 l 558 -26 q 389 -67 490 -67 q 292 -42 331 -67 q 254 19 253 -18 l 254 82 l 168 82 q 83 92 108 82 q 58 127 58 103 q 79 167 58 151 l 257 167 q 260 199 257 188 l 168 199 z "},"¦":{"ha":364,"x_min":81,"x_max":283,"o":"m 189 401 q 274 375 242 401 q 251 6 263 68 q 179 -92 228 -87 q 108 -65 138 -92 q 96 276 96 94 q 189 401 96 401 m 81 874 q 115 968 81 938 q 203 999 150 999 q 283 972 257 999 q 233 522 283 610 q 165 481 208 481 q 94 507 124 481 q 81 874 81 692 z "},"§":{"ha":522,"x_min":11,"x_max":518,"o":"m 414 218 q 497 58 497 161 q 423 -112 497 -46 q 240 -178 349 -178 q 71 -130 131 -178 q 11 -29 11 -82 q 28 35 11 7 q 64 72 46 63 l 81 82 q 111 47 89 69 q 153 11 133 25 q 261 -28 204 -28 q 297 -17 283 -28 q 310 6 310 -7 q 266 56 310 29 q 171 105 222 82 q 76 172 119 128 q 32 271 32 215 q 56 374 32 326 q 115 443 81 421 q 32 606 32 501 q 106 777 32 711 q 290 843 181 843 q 458 795 399 843 q 518 694 518 747 q 501 631 518 658 q 467 593 483 603 l 449 583 q 418 618 440 596 q 376 656 396 640 q 269 693 325 693 q 234 683 247 693 q 221 655 221 674 q 264 610 221 636 q 359 560 307 583 q 454 494 411 538 q 497 394 497 450 q 474 291 497 339 q 414 218 450 243 m 190 400 q 186 374 186 388 q 188 353 186 361 q 197 336 190 344 q 208 322 203 328 q 223 310 213 317 q 240 299 233 303 q 262 288 247 294 q 283 279 276 282 q 335 260 307 271 q 338 285 338 274 q 334 306 338 296 q 321 327 331 317 q 304 344 311 338 q 279 359 297 350 q 253 372 261 368 q 190 400 236 382 z "},"¨":{"ha":643,"x_min":97,"x_max":546,"o":"m 200 1160 q 251 1160 200 1160 q 303 1076 303 1160 q 200 992 303 992 q 97 1076 97 992 q 200 1160 97 1160 m 443 1175 q 546 1091 546 1175 q 443 1007 546 1007 q 340 1090 340 1007 q 366 1156 340 1136 q 443 1175 392 1175 z "},"©":{"ha":1088,"x_min":44,"x_max":1044,"o":"m 1044 519 q 908 113 1044 247 q 538 -22 771 -22 q 175 111 306 -22 q 44 482 44 244 q 182 888 44 753 q 549 1022 319 1022 q 911 890 778 1022 q 1044 519 1044 758 m 204 496 q 204 409 204 496 q 294 231 204 322 q 544 139 385 139 q 797 231 704 139 q 890 499 890 322 q 799 765 890 675 q 551 856 708 856 q 299 763 394 856 q 204 496 204 669 m 751 424 q 754 397 754 408 q 750 358 754 386 q 731 308 746 331 q 673 265 715 285 q 567 246 631 246 q 386 311 451 246 q 321 497 321 376 q 418 685 321 618 l 400 703 q 410 721 403 710 q 449 750 418 732 q 527 768 481 768 q 636 743 574 768 q 743 718 699 718 q 750 656 750 682 q 740 600 750 629 q 617 540 719 540 q 526 564 561 540 q 525 531 525 551 q 572 414 525 440 q 634 401 593 401 q 751 424 675 401 z "},"ª":{"ha":463,"x_min":35,"x_max":440,"o":"m 404 799 l 400 681 q 408 646 400 656 q 433 640 417 636 q 439 620 439 631 q 439 606 439 610 q 412 562 438 583 q 346 540 386 540 q 265 611 281 540 q 164 543 235 543 q 83 571 113 543 q 53 638 53 599 q 265 763 53 761 q 249 817 264 801 q 206 833 235 833 q 160 817 176 833 q 142 783 144 800 l 139 767 q 60 821 78 767 q 54 851 54 836 q 89 925 54 890 q 222 975 136 975 q 356 928 308 975 q 404 799 404 881 m 144 515 q 167 515 144 515 q 234 501 190 515 q 297 488 278 488 q 372 506 329 488 l 385 511 q 397 508 389 510 q 416 492 404 506 q 428 449 428 478 q 397 394 428 419 q 317 369 365 369 q 227 383 268 369 q 167 397 186 397 q 92 381 131 397 l 78 375 q 35 427 35 389 q 66 490 35 465 q 144 515 97 515 m 263 669 l 264 717 q 198 711 218 717 q 178 683 178 706 q 217 651 178 651 q 263 669 240 651 z "},"«":{"ha":1036,"x_min":32,"x_max":1003,"o":"m 535 197 q 529 166 535 189 q 514 126 524 143 q 481 94 504 108 q 426 79 458 79 q 262 129 357 79 q 99 243 167 179 q 32 345 32 307 q 111 450 32 383 q 417 647 246 560 q 478 614 451 636 q 529 528 529 572 q 456 439 529 485 q 311 371 383 393 l 238 349 l 535 213 l 535 197 m 1003 197 q 997 166 1003 189 q 982 126 992 143 q 949 94 972 108 q 894 79 926 79 q 731 129 826 79 q 567 244 635 179 q 500 346 500 308 q 581 450 500 383 q 885 647 714 560 q 946 614 919 636 q 997 528 997 572 q 924 439 997 485 q 778 371 851 393 l 706 349 l 1003 213 l 1003 197 z "},"¬":{"ha":879,"x_min":49,"x_max":831,"o":"m 49 538 q 83 629 49 589 l 679 629 q 793 597 756 629 q 831 492 831 564 q 789 81 831 185 q 742 8 767 28 q 683 -11 717 -11 q 597 8 622 -11 l 588 15 l 565 392 q 431 385 518 385 q 131 424 213 385 q 49 538 49 463 z "},"­":{"ha":588,"x_min":32,"x_max":556,"o":"m 108 283 q 52 308 72 283 q 32 377 32 332 q 60 461 32 422 l 478 461 q 556 369 556 461 q 538 306 556 324 q 167 283 221 283 q 108 283 113 283 z "},"®":{"ha":1088,"x_min":44,"x_max":1044,"o":"m 1044 519 q 908 113 1044 247 q 538 -22 771 -22 q 175 111 306 -22 q 44 482 44 244 q 182 888 44 753 q 549 1022 319 1022 q 911 890 778 1022 q 1044 519 1044 758 m 204 496 q 204 409 204 496 q 294 231 204 322 q 544 139 385 139 q 797 231 704 139 q 890 499 890 322 q 799 765 890 675 q 551 856 708 856 q 299 763 394 856 q 204 496 204 669 m 333 732 q 416 756 360 756 q 501 714 472 756 q 619 761 549 761 q 742 707 690 761 q 794 549 794 653 q 714 399 794 444 q 794 300 760 329 q 740 233 794 256 q 692 225 719 225 q 610 267 638 225 l 550 368 q 535 369 544 369 q 499 258 525 286 q 424 229 474 229 q 335 263 379 229 q 343 417 343 294 q 336 703 343 631 l 333 732 m 533 621 q 540 533 540 569 q 540 470 540 496 q 539 433 539 444 q 614 529 614 450 q 533 621 614 608 z "},"¯":{"ha":624,"x_min":49,"x_max":575,"o":"m 554 1040 q 326 1033 497 1033 q 102 1049 156 1033 q 49 1126 49 1065 q 67 1196 49 1169 q 310 1208 171 1208 q 499 1194 449 1208 q 563 1161 550 1181 q 575 1114 575 1142 q 554 1040 575 1069 z "},"°":{"ha":408,"x_min":32,"x_max":375,"o":"m 375 790 q 375 750 375 790 q 328 667 375 710 q 201 625 281 625 q 77 668 122 625 q 32 789 32 711 q 80 910 32 867 q 206 954 128 954 q 329 912 283 954 q 375 790 375 869 m 143 786 q 143 769 143 786 q 160 733 143 751 q 203 714 176 714 q 247 733 229 714 q 265 788 265 753 q 249 841 265 824 q 206 858 232 858 q 162 840 181 858 q 143 786 143 821 z "},"±":{"ha":568,"x_min":25,"x_max":547,"o":"m 104 379 q 45 404 65 379 q 25 474 25 429 q 53 558 25 519 l 197 558 l 197 646 q 290 731 197 731 q 375 703 336 731 l 375 558 l 471 558 q 547 467 547 558 q 531 403 547 422 q 375 392 460 397 l 375 285 q 285 207 375 207 q 234 216 256 207 q 206 235 213 225 l 197 244 l 197 382 q 134 379 163 379 q 104 379 106 379 m 104 0 q 45 25 65 0 q 25 94 25 50 q 53 178 25 139 l 471 178 q 547 88 547 178 q 531 24 547 43 q 160 0 214 0 q 104 0 106 0 z "},"²":{"ha":385,"x_min":47,"x_max":336,"o":"m 213 403 l 331 404 q 336 343 336 358 q 322 312 336 328 q 275 296 308 296 l 65 296 q 47 356 47 329 q 82 394 47 383 q 186 544 186 474 q 172 583 186 568 q 133 599 158 599 l 60 588 q 56 638 56 617 q 90 707 56 678 q 188 736 125 736 q 333 593 333 736 q 297 489 333 543 q 213 403 261 435 z "},"³":{"ha":378,"x_min":47,"x_max":329,"o":"m 133 329 q 186 382 186 329 q 160 433 186 415 q 133 432 151 432 q 106 438 114 432 q 99 450 99 444 l 99 456 q 156 497 128 468 q 183 550 183 525 q 140 593 183 593 l 53 582 q 47 631 47 610 q 83 704 47 672 q 186 736 119 736 q 290 703 253 736 q 326 597 326 669 q 275 476 326 524 q 314 430 299 461 q 329 364 329 399 q 292 259 329 299 q 182 219 256 219 q 115 231 144 219 q 72 260 86 243 q 53 296 58 276 q 60 356 42 338 q 133 329 101 329 z "},"´":{"ha":539,"x_min":97,"x_max":442,"o":"m 119 1011 q 97 1080 97 1039 q 171 1169 97 1121 q 317 1244 244 1218 l 390 1269 q 404 1258 396 1265 q 427 1226 413 1251 q 442 1171 442 1200 q 361 1083 442 1122 q 200 1028 281 1043 l 119 1011 z "},"µ":{"ha":625,"x_min":14,"x_max":603,"o":"m 390 722 q 412 732 390 722 q 473 742 433 742 q 542 706 513 742 q 572 624 572 669 l 572 156 l 603 85 q 588 61 597 75 q 544 24 578 47 q 474 0 511 0 q 367 93 389 0 q 315 27 350 54 q 244 0 281 0 q 196 3 207 0 q 199 -57 199 -42 q 180 -144 199 -118 q 118 -169 161 -169 q 36 -142 83 -169 q 69 90 65 -15 q 44 190 44 132 l 44 581 l 14 676 q 76 722 33 701 q 158 742 118 742 q 228 706 199 742 q 257 624 257 669 l 257 286 q 276 201 257 226 q 360 175 294 176 l 360 581 l 328 676 q 390 722 347 701 z "},"¶":{"ha":772,"x_min":24,"x_max":751,"o":"m 394 -10 q 331 7 367 -10 l 339 336 q 261 331 294 331 q 90 404 157 331 q 24 614 24 478 q 124 883 24 781 q 414 985 225 985 q 703 968 590 985 l 740 963 q 751 806 751 858 q 719 731 751 754 q 646 706 686 707 l 664 107 q 585 0 661 0 q 521 18 551 0 l 517 707 l 468 707 l 474 96 q 394 -10 471 -10 z "},"·":{"ha":331,"x_min":32,"x_max":299,"o":"m 299 353 q 165 246 299 246 q 32 353 32 246 q 165 463 32 463 q 299 353 299 463 z "},"¸":{"ha":950,"x_min":286,"x_max":608,"o":"m 433 -217 q 463 -185 463 -217 q 410 -143 463 -162 q 374 -119 390 -136 q 357 -73 357 -101 q 374 -22 357 -44 q 408 8 392 1 l 425 17 q 469 -42 438 -19 q 531 -72 500 -64 q 585 -105 561 -81 q 608 -171 608 -129 q 554 -282 608 -244 q 422 -319 500 -319 q 300 -297 338 -319 l 288 -290 q 288 -276 290 -287 q 286 -254 286 -264 q 299 -224 286 -244 q 344 -204 313 -204 l 433 -217 z "},"¹":{"ha":300,"x_min":47,"x_max":251,"o":"m 49 357 q 97 406 49 397 l 97 568 q 57 606 97 606 q 47 633 47 615 q 61 681 47 651 q 146 736 86 736 q 210 663 210 736 l 210 401 l 246 401 q 251 360 251 378 q 190 294 251 294 l 65 294 q 49 357 49 324 z "},"º":{"ha":463,"x_min":32,"x_max":431,"o":"m 32 760 q 32 810 32 760 q 83 917 32 860 q 234 975 135 975 q 382 916 333 975 q 431 761 431 857 q 379 604 431 665 q 229 543 328 543 q 81 602 131 543 q 32 760 32 661 m 246 651 q 297 755 297 651 q 244 858 297 858 q 192 755 192 858 q 246 651 192 651 m 144 515 q 167 515 144 515 q 234 501 190 515 q 297 488 278 488 q 372 506 329 488 l 385 511 q 397 508 389 510 q 416 492 404 506 q 428 449 428 478 q 397 394 428 419 q 317 369 365 369 q 227 383 268 369 q 167 397 186 397 q 92 381 131 397 l 78 375 q 35 427 35 389 q 66 490 35 465 q 144 515 97 515 z "},"»":{"ha":1036,"x_min":33,"x_max":1004,"o":"m 501 531 q 507 561 501 539 q 522 601 513 583 q 555 633 532 618 q 610 647 578 647 q 774 597 679 647 q 937 483 869 547 q 1004 381 1004 419 q 925 278 1004 343 q 619 79 790 167 q 543 128 578 93 q 508 196 508 163 q 581 288 508 243 q 728 356 654 333 l 800 378 l 501 515 l 501 531 m 33 531 q 39 561 33 539 q 54 601 44 583 q 87 633 64 618 q 142 647 110 647 q 306 597 211 647 q 469 483 401 547 q 536 381 536 419 q 456 278 536 343 q 151 79 322 167 q 75 128 110 93 q 40 196 40 163 q 113 288 40 243 q 258 356 186 333 l 331 378 l 33 515 l 33 531 z "},"¼":{"ha":832,"x_min":47,"x_max":782,"o":"m 725 -57 q 689 -64 707 -64 q 656 -53 671 -64 q 625 29 626 -33 q 496 31 554 31 q 450 60 463 31 q 446 84 446 71 q 457 110 446 97 q 589 431 472 163 q 599 434 593 432 q 620 438 604 436 q 642 432 636 440 q 686 439 658 439 q 744 367 744 439 l 732 119 l 774 121 q 782 69 782 90 q 750 29 782 29 l 729 29 l 725 -57 m 625 118 l 625 300 q 549 118 618 282 l 625 118 m 49 357 q 97 406 49 397 l 97 568 q 57 606 97 606 q 47 633 47 615 q 61 681 47 651 q 146 736 86 736 q 210 663 210 736 l 210 401 l 246 401 q 251 360 251 378 q 190 294 251 294 l 65 294 q 49 357 49 324 m 382 117 q 336 28 360 56 q 278 0 313 0 q 223 10 243 0 q 197 28 203 19 l 190 38 q 374 599 346 515 q 426 709 403 683 q 492 735 450 735 q 554 717 533 735 q 579 681 575 699 l 583 663 l 382 117 z "},"½":{"ha":846,"x_min":47,"x_max":797,"o":"m 49 357 q 97 406 49 397 l 97 568 q 57 606 97 606 q 47 633 47 615 q 61 681 47 651 q 146 736 86 736 q 210 663 210 736 l 210 401 l 246 401 q 251 360 251 378 q 190 294 251 294 l 65 294 q 49 357 49 324 m 382 117 q 336 28 360 56 q 278 0 313 0 q 223 10 243 0 q 197 28 203 19 l 190 38 q 374 599 346 515 q 426 709 403 683 q 492 735 450 735 q 554 717 533 735 q 579 681 575 699 l 583 663 l 382 117 m 674 107 l 792 108 q 797 47 797 63 q 783 16 797 32 q 736 0 769 0 l 526 0 q 508 60 508 33 q 543 99 508 88 q 647 249 647 178 q 633 288 647 272 q 594 303 619 303 l 521 292 q 517 342 517 321 q 551 411 517 382 q 649 440 586 440 q 794 297 794 440 q 758 193 794 247 q 674 107 722 139 z "},"¾":{"ha":922,"x_min":47,"x_max":872,"o":"m 133 329 q 186 382 186 329 q 160 433 186 415 q 133 432 151 432 q 106 438 114 432 q 99 450 99 444 l 99 456 q 156 497 128 468 q 183 550 183 525 q 140 593 183 593 l 53 582 q 47 631 47 610 q 83 704 47 672 q 186 736 119 736 q 290 703 253 736 q 326 597 326 669 q 275 476 326 524 q 314 430 299 461 q 329 364 329 399 q 292 259 329 299 q 182 219 256 219 q 115 231 144 219 q 72 260 86 243 q 53 296 58 276 q 60 356 42 338 q 133 329 101 329 m 815 -57 q 779 -64 797 -64 q 744 -53 761 -64 q 715 29 717 -33 q 586 31 644 31 q 542 60 553 31 q 536 84 536 71 q 547 110 536 97 q 679 431 563 163 q 689 434 683 432 q 710 438 694 436 q 732 432 726 440 q 775 439 749 439 q 835 367 835 439 l 822 119 l 864 121 q 871 71 871 90 q 840 29 871 29 l 819 29 l 815 -57 m 715 118 l 715 300 q 639 118 708 282 l 715 118 m 472 117 q 426 28 450 56 q 368 0 403 0 q 313 10 333 0 q 286 28 293 19 l 281 38 q 465 599 436 515 q 517 709 493 683 q 582 735 540 735 q 644 717 624 735 q 669 681 665 699 l 674 663 l 472 117 z "},"¿":{"ha":329,"x_min":49,"x_max":281,"o":"m 158 -158 q 49 -49 49 -158 q 89 350 49 18 l 101 460 q 179 467 163 481 q 204 447 196 453 q 218 411 213 440 q 232 306 232 339 l 281 -99 q 232 -139 268 -119 q 158 -158 196 -158 m 88 576 q 81 582 88 576 q 65 611 75 589 q 54 660 54 633 q 74 712 54 686 q 114 750 93 738 l 133 761 q 258 686 221 739 q 274 642 274 665 q 150 531 274 557 q 120 548 140 533 q 88 576 100 563 z "},"À":{"ha":789,"x_min":11,"x_max":776,"o":"m 760 45 q 755 40 760 45 q 713 17 750 35 q 624 0 676 0 q 478 172 508 0 q 362 167 429 167 q 276 171 294 167 q 226 39 258 78 q 128 0 193 0 q 67 11 96 0 q 25 33 38 22 l 11 44 q 164 833 65 697 q 231 892 200 881 q 288 904 261 904 q 321 903 314 904 q 331 903 328 903 l 325 931 q 337 945 329 936 q 378 969 344 954 q 456 985 411 985 q 601 916 547 985 q 697 649 654 847 q 776 63 739 451 q 760 45 771 56 m 300 331 q 393 336 344 336 q 449 335 442 336 q 361 763 399 588 q 300 331 326 571 m 306 1064 q 285 1072 306 1064 q 229 1108 264 1081 q 194 1166 194 1136 q 207 1221 194 1196 q 233 1256 219 1246 l 246 1265 q 278 1255 258 1261 q 348 1227 297 1249 q 437 1184 399 1206 q 507 1131 475 1163 q 539 1078 539 1100 q 517 1007 539 1038 q 482 1013 504 1010 q 404 1032 460 1017 q 306 1064 349 1047 z "},"Á":{"ha":789,"x_min":11,"x_max":776,"o":"m 760 45 q 755 40 760 45 q 713 17 750 35 q 624 0 676 0 q 478 172 508 0 q 362 167 429 167 q 276 171 294 167 q 226 39 258 78 q 128 0 193 0 q 67 11 96 0 q 25 33 38 22 l 11 44 q 164 833 65 697 q 231 892 200 881 q 288 904 261 904 q 321 903 314 904 q 331 903 328 903 l 325 931 q 337 945 329 936 q 378 969 344 954 q 456 985 411 985 q 601 916 547 985 q 697 649 654 847 q 776 63 739 451 q 760 45 771 56 m 300 331 q 393 336 344 336 q 449 335 442 336 q 361 763 399 588 q 300 331 326 571 m 271 979 q 249 1048 249 1007 q 322 1138 249 1089 q 468 1211 394 1186 l 542 1238 q 556 1226 547 1233 q 578 1194 564 1219 q 593 1139 593 1168 q 513 1051 593 1090 q 351 994 432 1011 l 271 979 z "},"Â":{"ha":789,"x_min":11,"x_max":776,"o":"m 760 45 q 755 40 760 45 q 713 17 750 35 q 624 0 676 0 q 478 172 508 0 q 362 167 429 167 q 276 171 294 167 q 226 39 258 78 q 128 0 193 0 q 67 11 96 0 q 25 33 38 22 l 11 44 q 164 833 65 697 q 231 892 200 881 q 288 904 261 904 q 321 903 314 904 q 331 903 328 903 l 325 931 q 337 945 329 936 q 378 969 344 954 q 456 985 411 985 q 601 916 547 985 q 697 649 654 847 q 776 63 739 451 q 760 45 771 56 m 300 331 q 393 336 344 336 q 449 335 442 336 q 361 763 399 588 q 300 331 326 571 m 192 1067 q 259 1136 192 1090 q 382 1182 326 1182 q 460 1159 413 1182 q 539 1113 507 1136 l 572 1089 q 569 1047 572 1064 q 549 1016 565 1031 q 501 1001 532 1001 q 440 1023 471 1001 q 394 1067 410 1044 l 378 1089 l 268 1001 q 192 1067 192 1001 z "},"Ã":{"ha":789,"x_min":11,"x_max":776,"o":"m 760 45 q 755 40 760 45 q 713 17 750 35 q 624 0 676 0 q 478 172 508 0 q 362 167 429 167 q 276 171 294 167 q 226 39 258 78 q 128 0 193 0 q 67 11 96 0 q 25 33 38 22 l 11 44 q 164 833 65 697 q 231 892 200 881 q 288 904 261 904 q 321 903 314 904 q 331 903 328 903 l 325 931 q 337 945 329 936 q 378 969 344 954 q 456 985 411 985 q 601 916 547 985 q 697 649 654 847 q 776 63 739 451 q 760 45 771 56 m 300 331 q 393 336 344 336 q 449 335 442 336 q 361 763 399 588 q 300 331 326 571 m 504 1001 q 397 1024 468 1001 q 292 1047 326 1047 q 225 1018 257 1047 q 185 1086 185 1040 q 292 1188 185 1188 q 397 1165 325 1188 q 501 1142 468 1142 q 568 1174 533 1142 q 607 1092 607 1144 q 504 1001 607 1001 z "},"Ä":{"ha":789,"x_min":11,"x_max":776,"o":"m 760 45 q 755 40 760 45 q 713 17 750 35 q 624 0 676 0 q 478 172 508 0 q 362 167 429 167 q 276 171 294 167 q 226 39 258 78 q 128 0 193 0 q 67 11 96 0 q 25 33 38 22 l 11 44 q 164 833 65 697 q 231 892 200 881 q 288 904 261 904 q 321 903 314 904 q 331 903 328 903 l 325 931 q 337 945 329 936 q 378 969 344 954 q 456 985 411 985 q 601 916 547 985 q 697 649 654 847 q 776 63 739 451 q 760 45 771 56 m 300 331 q 393 336 344 336 q 449 335 442 336 q 361 763 399 588 q 300 331 326 571 m 263 1153 q 314 1153 263 1153 q 365 1069 365 1153 q 263 985 365 985 q 160 1069 160 985 q 263 1153 160 1153 m 506 1168 q 608 1084 608 1168 q 506 1000 608 1000 q 403 1083 403 1000 q 428 1149 403 1129 q 506 1168 454 1168 z "},"Å":{"ha":789,"x_min":11,"x_max":776,"o":"m 561 1032 q 547 963 561 994 q 636 863 601 932 q 776 63 710 711 q 761 45 771 56 q 715 17 751 35 q 625 0 679 0 q 533 38 571 0 q 479 172 496 76 q 364 167 431 167 q 278 171 297 167 q 224 36 260 72 q 119 0 189 0 q 66 11 93 0 q 25 33 39 22 l 11 43 q 125 747 56 578 q 192 865 160 833 q 272 903 225 897 q 197 1032 197 936 q 376 1182 197 1182 q 514 1148 467 1182 q 561 1032 561 1114 m 300 331 q 393 336 344 336 q 449 335 442 336 q 361 763 399 588 q 300 331 326 571 m 383 986 q 410 986 383 986 q 436 1029 436 986 q 383 1072 436 1072 q 331 1029 331 1072 q 383 986 331 986 z "},"Æ":{"ha":1035,"x_min":24,"x_max":1028,"o":"m 997 500 q 1006 413 1006 432 q 985 372 1006 394 q 919 349 965 349 l 728 349 q 792 231 739 247 q 821 226 804 226 q 989 271 878 226 q 1028 192 1021 256 q 1028 179 1028 185 q 965 60 1028 121 q 756 0 901 0 q 461 171 535 0 q 354 167 408 167 q 279 171 300 167 q 229 39 261 78 q 131 0 197 0 q 72 11 99 0 q 35 33 46 22 l 24 43 q 142 764 71 599 q 213 874 179 847 q 299 904 247 901 q 428 992 332 992 q 472 992 435 992 q 694 978 508 992 q 1011 965 881 965 q 1028 833 1028 924 q 1005 697 1028 742 q 928 651 982 651 q 732 656 853 651 q 721 506 721 585 l 721 496 q 997 500 975 500 m 426 336 l 426 367 q 489 658 426 526 q 346 653 390 656 q 303 331 336 593 q 426 336 349 336 z "},"Ç":{"ha":689,"x_min":26,"x_max":664,"o":"m 658 254 q 663 213 663 242 q 658 161 663 183 q 638 110 653 139 q 600 61 624 82 q 435 1 544 10 q 465 -11 439 -1 q 498 -26 490 -21 q 521 -43 506 -31 q 546 -111 546 -64 q 492 -222 546 -185 q 360 -260 438 -260 q 239 -237 281 -260 l 225 -231 q 226 -216 228 -228 q 224 -194 224 -204 q 237 -165 224 -185 q 282 -144 250 -144 l 371 -157 q 400 -125 400 -157 q 347 -83 400 -103 q 311 -59 328 -76 q 294 -23 294 -42 q 297 10 294 -4 q 26 442 26 68 q 97 735 26 621 q 268 899 167 849 q 315 957 282 929 q 403 985 347 985 q 532 947 460 985 q 656 908 604 908 q 663 821 663 843 q 662 775 663 799 q 651 727 661 751 q 625 681 642 703 q 510 638 593 638 q 417 665 453 638 q 350 743 382 692 q 321 506 321 642 q 403 261 321 339 q 510 221 444 221 q 658 254 575 221 z "},"È":{"ha":642,"x_min":17,"x_max":628,"o":"m 526 651 l 331 656 q 321 506 321 596 l 321 496 q 596 500 571 500 q 603 439 603 465 q 519 349 603 349 l 326 349 q 392 231 338 247 q 419 226 403 226 q 589 271 478 226 q 626 187 626 253 q 563 60 626 121 q 354 0 500 0 q 126 76 215 0 q 26 367 26 161 q 88 654 26 525 l 53 651 q 17 786 17 685 q 158 992 17 992 q 203 992 165 992 q 360 978 240 992 q 611 965 481 965 q 628 833 628 924 q 604 697 628 742 q 526 651 581 651 m 249 1054 q 228 1063 249 1054 q 172 1099 207 1071 q 138 1156 138 1126 q 151 1211 138 1186 q 176 1246 164 1236 l 189 1256 q 221 1245 201 1251 q 291 1217 240 1239 q 380 1174 342 1196 q 450 1122 418 1153 q 482 1068 482 1090 q 460 997 482 1031 q 425 1003 447 1000 q 347 1022 403 1007 q 249 1054 292 1038 z "},"É":{"ha":642,"x_min":17,"x_max":628,"o":"m 526 651 l 331 656 q 321 506 321 596 l 321 496 q 596 500 571 500 q 603 439 603 465 q 519 349 603 349 l 326 349 q 392 231 338 247 q 419 226 403 226 q 589 271 478 226 q 626 187 626 253 q 563 60 626 121 q 354 0 500 0 q 126 76 215 0 q 26 367 26 161 q 88 654 26 525 l 53 651 q 17 786 17 685 q 158 992 17 992 q 203 992 165 992 q 360 978 240 992 q 611 965 481 965 q 628 833 628 924 q 604 697 628 742 q 526 651 581 651 m 207 1004 q 185 1073 185 1032 q 258 1163 185 1114 q 404 1236 331 1211 l 478 1263 q 492 1251 483 1258 q 515 1219 500 1244 q 529 1164 529 1193 q 449 1076 529 1115 q 288 1019 368 1036 l 207 1004 z "},"Ê":{"ha":642,"x_min":17,"x_max":628,"o":"m 526 651 l 331 656 q 321 506 321 596 l 321 496 q 596 500 571 500 q 603 439 603 465 q 519 349 603 349 l 326 349 q 392 231 338 247 q 419 226 403 226 q 589 271 478 226 q 626 187 626 253 q 563 60 626 121 q 354 0 500 0 q 126 76 215 0 q 26 367 26 161 q 88 654 26 525 l 53 651 q 17 786 17 685 q 158 992 17 992 q 203 992 165 992 q 360 978 240 992 q 611 965 481 965 q 628 833 628 924 q 604 697 628 742 q 526 651 581 651 m 128 1075 q 195 1146 128 1100 q 318 1192 263 1192 q 396 1168 349 1192 q 475 1122 443 1144 l 508 1099 q 505 1057 508 1074 q 485 1026 501 1040 q 438 1011 468 1011 q 376 1033 407 1011 q 331 1078 346 1056 l 314 1099 l 204 1011 q 128 1075 128 1011 z "},"Ë":{"ha":642,"x_min":17,"x_max":628,"o":"m 526 651 l 331 656 q 321 506 321 596 l 321 496 q 596 500 571 500 q 603 439 603 465 q 519 349 603 349 l 326 349 q 392 231 338 247 q 419 226 403 226 q 589 271 478 226 q 626 187 626 253 q 563 60 626 121 q 354 0 500 0 q 126 76 215 0 q 26 367 26 161 q 88 654 26 525 l 53 651 q 17 786 17 685 q 158 992 17 992 q 203 992 165 992 q 360 978 240 992 q 611 965 481 965 q 628 833 628 924 q 604 697 628 742 q 526 651 581 651 m 225 1174 q 276 1174 225 1174 q 328 1090 328 1174 q 225 1006 328 1006 q 122 1090 122 1006 q 225 1174 122 1174 m 468 1189 q 571 1105 571 1189 q 468 1021 571 1021 q 365 1104 365 1021 q 391 1169 365 1150 q 468 1189 417 1189 z "},"Ì":{"ha":458,"x_min":21,"x_max":435,"o":"m 103 646 q 21 801 21 646 q 31 888 21 844 l 46 968 q 319 996 208 996 q 398 961 369 996 q 431 886 426 926 q 435 821 435 846 q 424 694 435 749 l 417 660 q 368 658 383 660 l 342 211 q 397 189 379 210 q 414 142 414 168 q 392 28 414 81 l 382 7 q 143 0 269 0 q 83 19 106 0 q 55 65 60 39 q 50 106 50 92 q 56 169 50 147 l 61 189 l 117 196 l 103 646 m 177 1068 q 156 1076 177 1068 q 100 1113 135 1085 q 65 1170 65 1140 q 78 1225 65 1200 q 104 1260 92 1250 l 117 1269 q 149 1259 129 1265 q 219 1231 168 1253 q 308 1188 269 1210 q 378 1135 346 1167 q 410 1082 410 1104 q 388 1011 410 1044 q 353 1017 375 1014 q 275 1036 331 1021 q 177 1068 219 1051 z "},"Í":{"ha":458,"x_min":21,"x_max":435,"o":"m 103 646 q 21 801 21 646 q 31 888 21 844 l 46 968 q 319 996 208 996 q 398 961 369 996 q 431 886 426 926 q 435 821 435 846 q 424 694 435 749 l 417 660 q 368 658 383 660 l 342 211 q 397 189 379 210 q 414 142 414 168 q 392 28 414 81 l 382 7 q 143 0 269 0 q 83 19 106 0 q 55 65 60 39 q 50 106 50 92 q 56 169 50 147 l 61 189 l 117 196 l 103 646 m 81 1011 q 58 1080 58 1039 q 132 1169 58 1121 q 278 1244 206 1218 l 351 1269 q 365 1258 357 1265 q 388 1226 374 1251 q 403 1171 403 1200 q 322 1083 403 1122 q 161 1028 242 1043 l 81 1011 z "},"Î":{"ha":458,"x_min":21,"x_max":435,"o":"m 103 646 q 21 801 21 646 q 31 888 21 844 l 46 968 q 319 996 208 996 q 398 961 369 996 q 431 886 426 926 q 435 821 435 846 q 424 694 435 749 l 417 660 q 368 658 383 660 l 342 211 q 397 189 379 210 q 414 142 414 168 q 392 28 414 81 l 382 7 q 143 0 269 0 q 83 19 106 0 q 55 65 60 39 q 50 106 50 92 q 56 169 50 147 l 61 189 l 117 196 l 103 646 m 21 1075 q 88 1146 21 1100 q 211 1192 156 1192 q 289 1168 242 1192 q 369 1122 336 1144 l 401 1099 q 398 1057 401 1074 q 378 1026 394 1040 q 331 1011 361 1011 q 269 1033 300 1011 q 222 1078 239 1056 l 207 1099 l 97 1011 q 21 1075 21 1011 z "},"Ï":{"ha":458,"x_min":4,"x_max":453,"o":"m 103 646 q 21 801 21 646 q 31 888 21 844 l 46 968 q 319 996 208 996 q 398 961 369 996 q 431 886 426 926 q 435 821 435 846 q 424 694 435 749 l 417 660 q 368 658 383 660 l 342 211 q 397 189 379 210 q 414 142 414 168 q 392 28 414 81 l 382 7 q 143 0 269 0 q 83 19 106 0 q 55 65 60 39 q 50 106 50 92 q 56 169 50 147 l 61 189 l 117 196 l 103 646 m 350 1183 q 453 1099 453 1183 q 350 1015 453 1015 q 247 1099 247 1015 q 273 1164 247 1144 q 350 1183 299 1183 m 107 1168 q 158 1168 107 1168 q 210 1084 210 1168 q 107 1000 210 1000 q 4 1084 4 1000 q 107 1168 4 1168 z "},"Ð":{"ha":833,"x_min":-7,"x_max":814,"o":"m 40 939 q 172 985 83 985 q 303 906 260 985 q 483 993 361 993 q 726 876 638 993 q 814 523 814 758 q 707 147 814 288 q 443 7 600 7 q 292 57 357 7 q 186 0 254 0 q 114 15 150 0 q 60 44 78 29 l 42 58 q 57 353 54 110 q 8 382 22 361 q -7 432 -7 403 q 8 513 -7 472 q 57 515 15 514 q 44 890 54 744 l 40 939 m 428 163 q 515 238 482 163 q 549 464 549 314 q 483 698 549 614 q 339 782 418 782 q 354 564 354 694 l 354 518 q 463 494 431 518 q 496 419 496 469 l 489 375 q 350 356 451 364 q 336 203 346 267 q 428 163 386 163 z "},"Ñ":{"ha":924,"x_min":47,"x_max":872,"o":"m 578 954 q 708 996 618 996 q 835 957 797 996 q 872 816 872 918 q 849 439 872 714 q 826 44 826 164 q 669 1 771 1 q 606 19 622 1 q 331 560 479 44 q 321 33 321 271 q 195 1 294 1 q 92 85 96 1 l 47 924 q 229 985 149 985 q 293 971 269 985 q 329 976 313 976 q 417 917 389 976 q 482 714 444 858 q 530 531 519 569 q 558 425 540 493 q 594 293 576 357 q 597 504 597 414 q 585 881 597 756 l 578 954 m 567 1003 q 460 1026 531 1003 q 356 1049 389 1049 q 288 1019 322 1049 q 247 1089 247 1042 q 354 1189 247 1189 q 459 1166 388 1189 q 565 1143 531 1143 q 631 1175 599 1143 q 669 1093 669 1146 q 567 1003 669 1003 z "},"Ò":{"ha":838,"x_min":26,"x_max":813,"o":"m 26 428 q 54 637 26 544 q 128 783 82 729 q 314 913 215 889 q 483 985 371 985 q 725 867 638 985 q 813 513 813 749 q 694 138 813 278 q 399 -1 576 -1 q 124 107 222 -1 q 26 428 26 215 m 435 161 q 517 232 488 161 q 547 436 547 303 q 490 649 547 569 q 353 765 432 728 q 318 478 318 632 q 435 161 318 161 m 340 1049 q 318 1057 340 1049 q 263 1093 297 1065 q 228 1151 228 1121 q 240 1206 228 1181 q 267 1240 253 1231 l 279 1250 q 311 1240 292 1246 q 381 1212 331 1233 q 470 1169 432 1190 q 540 1116 508 1147 q 572 1063 572 1085 q 550 992 572 1025 q 515 998 538 994 q 438 1017 493 1001 q 340 1049 382 1032 z "},"Ó":{"ha":838,"x_min":26,"x_max":813,"o":"m 26 428 q 54 637 26 544 q 128 783 82 729 q 314 913 215 889 q 483 985 371 985 q 725 867 638 985 q 813 513 813 749 q 694 138 813 278 q 399 -1 576 -1 q 124 107 222 -1 q 26 428 26 215 m 435 161 q 517 232 488 161 q 547 436 547 303 q 490 649 547 569 q 353 765 432 728 q 318 478 318 632 q 435 161 318 161 m 276 979 q 254 1048 254 1007 q 327 1138 254 1089 q 474 1211 400 1186 l 547 1238 q 561 1226 553 1233 q 584 1194 569 1219 q 599 1139 599 1168 q 518 1051 599 1090 q 357 994 438 1011 l 276 979 z "},"Ô":{"ha":838,"x_min":26,"x_max":813,"o":"m 26 428 q 54 637 26 544 q 128 783 82 729 q 314 913 215 889 q 483 985 371 985 q 725 867 638 985 q 813 513 813 749 q 694 138 813 278 q 399 -1 576 -1 q 124 107 222 -1 q 26 428 26 215 m 435 161 q 517 232 488 161 q 547 436 547 303 q 490 649 547 569 q 353 765 432 728 q 318 478 318 632 q 435 161 318 161 m 192 1064 q 259 1133 192 1088 q 382 1179 326 1179 q 460 1156 413 1179 q 539 1110 507 1133 l 572 1086 q 569 1044 572 1061 q 549 1013 565 1028 q 501 999 532 999 q 440 1020 471 999 q 394 1064 410 1042 l 378 1086 l 268 999 q 192 1064 192 999 z "},"Õ":{"ha":838,"x_min":26,"x_max":813,"o":"m 26 428 q 54 637 26 544 q 128 783 82 729 q 314 913 215 889 q 483 985 371 985 q 725 867 638 985 q 813 513 813 749 q 694 138 813 278 q 399 -1 576 -1 q 124 107 222 -1 q 26 428 26 215 m 435 161 q 517 232 488 161 q 547 436 547 303 q 490 649 547 569 q 353 765 432 728 q 318 478 318 632 q 435 161 318 161 m 517 1003 q 410 1026 481 1003 q 306 1049 339 1049 q 238 1019 272 1049 q 197 1089 197 1042 q 304 1189 197 1189 q 409 1166 338 1189 q 515 1143 481 1143 q 581 1175 549 1143 q 619 1093 619 1146 q 517 1003 619 1003 z "},"Ö":{"ha":838,"x_min":26,"x_max":813,"o":"m 26 428 q 54 637 26 544 q 128 783 82 729 q 314 913 215 889 q 483 985 371 985 q 725 867 638 985 q 813 513 813 749 q 694 138 813 278 q 399 -1 576 -1 q 124 107 222 -1 q 26 428 26 215 m 435 161 q 517 232 488 161 q 547 436 547 303 q 490 649 547 569 q 353 765 432 728 q 318 478 318 632 q 435 161 318 161 m 279 1160 q 331 1160 279 1160 q 382 1076 382 1160 q 279 992 382 992 q 176 1076 176 992 q 279 1160 176 1160 m 522 1175 q 625 1091 625 1175 q 522 1007 625 1007 q 419 1090 419 1007 q 445 1156 419 1136 q 522 1175 471 1175 z "},"×":{"ha":560,"x_min":33,"x_max":525,"o":"m 401 613 q 419 615 408 615 q 447 614 429 615 q 479 606 464 613 q 508 580 494 599 q 521 533 521 561 q 417 363 521 471 q 511 222 478 276 l 525 200 l 525 192 q 486 133 525 153 q 447 126 471 126 q 272 232 383 126 l 121 117 q 65 144 90 121 q 39 199 39 168 q 146 372 39 256 q 47 503 79 456 l 33 522 l 33 532 q 75 603 33 581 q 121 613 94 613 q 289 514 183 613 l 401 613 z "},"Ø":{"ha":838,"x_min":26,"x_max":813,"o":"m 26 428 q 54 637 26 544 q 128 783 82 729 q 314 913 215 889 q 483 985 371 985 q 550 978 515 985 l 557 1000 q 599 1098 581 1074 q 638 1122 618 1122 q 682 1103 669 1122 l 686 1097 l 636 947 q 813 508 813 849 q 694 138 813 278 q 394 -1 576 -1 q 319 4 351 -1 l 313 -19 q 229 -143 272 -143 q 205 -137 213 -143 q 197 -126 197 -132 l 197 -121 q 244 24 217 -61 q 26 428 26 108 m 435 161 q 517 232 488 161 q 547 415 547 303 q 518 596 547 526 l 381 185 q 435 161 404 161 m 353 765 q 318 497 318 632 q 332 297 318 363 l 457 689 q 353 765 415 735 z "},"Ù":{"ha":838,"x_min":26,"x_max":817,"o":"m 26 496 q 38 627 26 563 q 60 722 49 692 l 71 754 l 47 860 q 94 917 57 889 q 224 946 136 946 q 347 917 311 946 q 382 832 382 888 q 358 686 382 803 q 335 439 335 569 q 362 235 335 308 q 438 161 389 161 q 517 232 488 161 q 547 440 547 303 q 527 698 547 578 q 486 871 507 818 l 467 924 q 477 940 467 928 q 500 961 488 953 q 588 981 533 981 q 817 569 817 981 q 776 266 817 392 q 641 66 736 140 q 399 -8 546 -8 q 116 128 206 -8 q 26 496 26 264 m 222 999 q 200 1007 222 999 q 144 1043 179 1015 q 110 1101 110 1071 q 123 1156 110 1131 q 149 1190 136 1181 l 161 1200 q 193 1190 174 1196 q 263 1162 213 1183 q 352 1119 314 1140 q 422 1066 390 1097 q 454 1013 454 1035 q 432 942 454 975 q 397 948 419 944 q 319 967 375 951 q 222 999 264 982 z "},"Ú":{"ha":838,"x_min":26,"x_max":817,"o":"m 26 496 q 38 627 26 563 q 60 722 49 692 l 71 754 l 47 860 q 94 917 57 889 q 224 946 136 946 q 347 917 311 946 q 382 832 382 888 q 358 686 382 803 q 335 439 335 569 q 362 235 335 308 q 438 161 389 161 q 517 232 488 161 q 547 440 547 303 q 527 698 547 578 q 486 871 507 818 l 467 924 q 477 940 467 928 q 500 961 488 953 q 588 981 533 981 q 817 569 817 981 q 776 266 817 392 q 641 66 736 140 q 399 -8 546 -8 q 116 128 206 -8 q 26 496 26 264 m 342 953 q 319 1022 319 981 q 393 1111 319 1063 q 539 1186 467 1160 l 613 1211 q 626 1200 618 1207 q 649 1167 635 1193 q 664 1113 664 1142 q 583 1024 664 1064 q 422 969 503 985 l 342 953 z "},"Û":{"ha":838,"x_min":26,"x_max":817,"o":"m 26 496 q 38 627 26 563 q 60 722 49 692 l 71 754 l 47 860 q 94 917 57 889 q 224 946 136 946 q 347 917 311 946 q 382 832 382 888 q 358 686 382 803 q 335 439 335 569 q 362 235 335 308 q 438 161 389 161 q 517 232 488 161 q 547 440 547 303 q 527 698 547 578 q 486 871 507 818 l 467 924 q 477 940 467 928 q 500 961 488 953 q 588 981 533 981 q 817 569 817 981 q 776 266 817 392 q 641 66 736 140 q 399 -8 546 -8 q 116 128 206 -8 q 26 496 26 264 m 211 1061 q 278 1132 211 1086 q 401 1178 346 1178 q 479 1154 432 1178 q 558 1108 526 1131 l 592 1085 q 588 1043 592 1060 q 568 1012 585 1026 q 521 997 551 997 q 460 1019 490 997 q 414 1064 429 1042 l 397 1085 l 288 997 q 211 1061 211 997 z "},"Ü":{"ha":838,"x_min":26,"x_max":817,"o":"m 26 496 q 38 627 26 563 q 60 722 49 692 l 71 754 l 47 860 q 94 917 57 889 q 224 946 136 946 q 347 917 311 946 q 382 832 382 888 q 358 686 382 803 q 335 439 335 569 q 362 235 335 308 q 438 161 389 161 q 517 232 488 161 q 547 440 547 303 q 527 698 547 578 q 486 871 507 818 l 467 924 q 477 940 467 928 q 500 961 488 953 q 588 981 533 981 q 817 569 817 981 q 776 266 817 392 q 641 66 736 140 q 399 -8 546 -8 q 116 128 206 -8 q 26 496 26 264 m 296 1160 q 347 1160 296 1160 q 399 1076 399 1160 q 296 992 399 992 q 193 1076 193 992 q 296 1160 193 1160 m 539 1175 q 642 1091 642 1175 q 539 1007 642 1007 q 436 1090 436 1007 q 462 1156 436 1136 q 539 1175 488 1175 z "},"Ý":{"ha":793,"x_min":19,"x_max":764,"o":"m 719 675 q 535 286 615 364 q 558 40 544 133 q 389 0 490 0 q 292 24 331 0 q 254 85 253 47 q 260 285 254 194 q 224 340 236 307 l 19 867 q 39 903 24 881 q 72 939 54 925 q 203 979 124 979 q 294 933 264 979 q 344 815 328 882 q 369 703 360 747 q 393 582 378 658 q 422 444 408 506 l 518 957 q 646 985 557 985 q 747 949 725 985 q 764 865 764 922 q 719 675 764 807 m 315 957 q 293 1026 293 985 q 366 1115 293 1067 q 513 1189 439 1164 l 586 1215 q 600 1204 592 1211 q 623 1172 608 1197 q 638 1117 638 1146 q 557 1028 638 1068 q 396 972 476 989 l 315 957 z "},"Þ":{"ha":793,"x_min":40,"x_max":758,"o":"m 172 985 q 272 949 232 985 q 335 807 313 913 q 501 857 394 857 q 683 778 607 857 q 758 544 758 700 q 668 288 758 389 q 421 186 578 186 q 335 194 364 186 q 283 44 318 88 q 186 0 247 0 q 114 15 150 0 q 60 44 78 29 l 42 58 q 56 342 56 119 q 44 879 56 676 l 40 939 q 172 985 82 985 m 351 622 q 353 502 353 604 q 344 289 353 400 q 455 355 415 304 q 494 481 494 406 q 452 588 494 556 q 351 622 410 619 z "},"ß":{"ha":579,"x_min":39,"x_max":575,"o":"m 133 -114 q 57 -96 83 -114 q 48 224 57 0 q 39 536 39 447 q 293 793 39 793 q 481 728 418 793 q 544 553 544 663 q 522 425 544 474 q 450 333 499 376 l 464 326 q 561 239 532 292 q 575 190 575 214 q 530 58 575 115 q 411 0 485 0 q 301 28 338 0 q 265 101 265 57 q 286 153 265 129 q 353 142 331 142 q 388 160 375 142 q 400 193 400 178 l 275 260 q 294 319 275 283 q 353 506 353 425 q 348 550 353 532 q 322 581 343 568 q 280 594 300 594 q 250 593 260 594 l 244 17 q 133 -114 244 -114 z "},"à":{"ha":585,"x_min":42,"x_max":572,"o":"m 328 418 q 218 517 328 517 q 88 476 156 517 q 65 531 65 499 q 84 599 65 564 q 134 665 103 633 q 214 716 165 696 q 317 736 263 736 q 483 668 425 736 q 542 474 542 600 l 542 156 l 572 85 q 557 61 567 75 q 514 24 547 47 q 444 0 481 0 q 335 100 354 0 q 208 0 289 0 q 84 51 126 0 q 42 183 42 101 q 328 408 42 396 l 328 418 m 215 235 q 253 165 215 181 q 271 161 261 161 q 328 193 299 161 l 328 346 q 215 235 215 319 m 219 815 q 198 824 219 815 q 142 860 176 832 q 107 917 107 888 q 120 972 107 947 q 146 1007 133 997 l 158 1017 q 190 1006 171 1013 q 260 978 210 1000 q 349 935 311 957 q 419 883 388 914 q 451 829 451 851 q 429 758 451 792 q 394 765 417 761 q 317 783 372 768 q 219 815 261 799 z "},"á":{"ha":585,"x_min":42,"x_max":572,"o":"m 328 418 q 218 517 328 517 q 88 476 156 517 q 65 531 65 499 q 84 599 65 564 q 134 665 103 633 q 214 716 165 696 q 317 736 263 736 q 483 668 425 736 q 542 474 542 600 l 542 156 l 572 85 q 557 61 567 75 q 514 24 547 47 q 444 0 481 0 q 335 100 354 0 q 208 0 289 0 q 84 51 126 0 q 42 183 42 101 q 328 408 42 396 l 328 418 m 215 235 q 253 165 215 181 q 271 161 261 161 q 328 193 299 161 l 328 346 q 215 235 215 319 m 168 758 q 146 827 146 786 q 219 917 146 868 q 365 992 292 965 l 439 1017 q 453 1006 444 1013 q 476 973 461 999 q 490 918 490 947 q 410 830 490 869 q 249 775 329 790 l 168 758 z "},"â":{"ha":585,"x_min":42,"x_max":572,"o":"m 328 418 q 218 517 328 517 q 88 476 156 517 q 65 531 65 499 q 84 599 65 564 q 134 665 103 633 q 214 716 165 696 q 317 736 263 736 q 483 668 425 736 q 542 474 542 600 l 542 156 l 572 85 q 557 61 567 75 q 514 24 547 47 q 444 0 481 0 q 335 100 354 0 q 208 0 289 0 q 84 51 126 0 q 42 183 42 101 q 328 408 42 396 l 328 418 m 215 235 q 253 165 215 181 q 271 161 261 161 q 328 193 299 161 l 328 346 q 215 235 215 319 m 94 825 q 162 894 94 849 q 285 940 229 940 q 363 917 315 940 q 442 871 410 894 l 475 847 q 472 806 475 822 q 451 774 468 789 q 404 760 435 760 q 343 781 374 760 q 297 825 313 803 l 281 847 l 171 760 q 94 825 94 760 z "},"ã":{"ha":585,"x_min":42,"x_max":572,"o":"m 328 418 q 218 517 328 517 q 88 476 156 517 q 65 531 65 499 q 84 599 65 564 q 134 665 103 633 q 214 716 165 696 q 317 736 263 736 q 483 668 425 736 q 542 474 542 600 l 542 156 l 572 85 q 557 61 567 75 q 514 24 547 47 q 444 0 481 0 q 335 100 354 0 q 208 0 289 0 q 84 51 126 0 q 42 183 42 101 q 328 408 42 396 l 328 418 m 215 235 q 253 165 215 181 q 271 161 261 161 q 328 193 299 161 l 328 346 q 215 235 215 319 m 419 758 q 313 781 383 758 q 208 804 242 804 q 140 775 175 804 q 100 844 100 797 q 207 944 100 944 q 312 922 240 944 q 417 899 383 899 q 483 931 451 899 q 522 849 522 901 q 419 758 522 758 z "},"ä":{"ha":585,"x_min":42,"x_max":572,"o":"m 328 418 q 218 517 328 517 q 88 476 156 517 q 65 531 65 499 q 84 599 65 564 q 134 665 103 633 q 214 716 165 696 q 317 736 263 736 q 483 668 425 736 q 542 474 542 600 l 542 156 l 572 85 q 557 61 567 75 q 514 24 547 47 q 444 0 481 0 q 335 100 354 0 q 208 0 289 0 q 84 51 126 0 q 42 183 42 101 q 328 408 42 396 l 328 418 m 215 235 q 253 165 215 181 q 271 161 261 161 q 328 193 299 161 l 328 346 q 215 235 215 319 m 190 926 q 242 926 190 926 q 293 842 293 926 q 190 758 293 758 q 88 842 88 758 q 190 926 88 926 m 433 942 q 536 858 536 942 q 433 774 536 774 q 331 857 331 774 q 356 922 331 903 q 433 942 382 942 z "},"å":{"ha":585,"x_min":42,"x_max":572,"o":"m 328 418 q 218 517 328 517 q 88 476 156 517 q 65 531 65 499 q 84 599 65 564 q 134 665 103 633 q 214 716 165 696 q 317 736 263 736 q 483 668 425 736 q 542 474 542 600 l 542 156 l 572 85 q 557 61 567 75 q 514 24 547 47 q 444 0 481 0 q 335 100 354 0 q 208 0 289 0 q 84 51 126 0 q 42 183 42 101 q 328 408 42 396 l 328 418 m 215 235 q 253 165 215 181 q 271 161 261 161 q 328 193 299 161 l 328 346 q 215 235 215 319 m 492 906 q 310 758 492 758 q 128 906 128 758 q 307 1056 128 1056 q 444 1022 397 1056 q 492 906 492 988 m 308 860 q 335 860 308 860 q 361 903 361 860 q 308 946 361 946 q 256 903 256 946 q 308 860 256 860 z "},"æ":{"ha":861,"x_min":33,"x_max":831,"o":"m 319 418 q 210 517 319 517 q 79 476 147 517 q 57 531 57 499 q 76 599 57 564 q 126 665 94 633 q 206 716 157 696 q 308 736 254 736 q 481 661 421 736 q 550 716 500 696 q 653 736 600 736 q 781 679 732 736 q 831 524 831 622 q 744 342 831 408 q 579 257 676 286 q 743 194 629 194 q 810 199 774 194 q 825 158 825 183 q 812 108 825 133 q 774 58 799 82 q 701 17 749 33 q 594 0 654 0 q 379 106 450 0 q 199 0 311 0 q 76 51 118 0 q 33 183 33 101 q 319 411 33 399 l 319 418 m 207 235 q 225 183 207 203 q 279 164 243 164 q 342 189 315 164 q 325 331 325 247 l 325 347 q 207 235 207 321 m 638 456 q 533 549 638 540 l 533 424 q 546 324 533 360 q 638 456 638 376 z "},"ç":{"ha":515,"x_min":33,"x_max":501,"o":"m 483 193 q 499 155 499 178 q 490 108 499 132 q 461 60 481 83 q 321 0 417 6 q 355 -28 321 -15 q 424 -62 389 -40 q 458 -135 458 -85 q 419 -217 458 -185 q 285 -249 379 -249 q 153 -226 204 -249 l 138 -219 q 138 -205 140 -217 q 136 -183 136 -193 q 149 -153 136 -174 q 185 -133 163 -133 q 224 -137 207 -133 q 256 -144 242 -140 q 283 -149 271 -147 q 313 -135 313 -151 q 291 -117 313 -122 q 247 -96 269 -111 q 225 -47 225 -81 q 240 6 225 -14 q 91 102 149 25 q 33 339 33 179 q 94 584 33 499 q 231 676 154 669 q 363 736 293 736 q 456 699 410 736 q 501 613 501 661 q 467 519 501 564 q 379 457 433 475 q 243 554 318 522 l 243 424 q 306 233 243 292 q 433 189 353 189 q 483 193 457 189 z "},"è":{"ha":563,"x_min":33,"x_max":540,"o":"m 519 199 q 535 158 535 183 q 522 108 535 133 q 483 58 508 82 q 410 17 457 33 q 306 0 363 0 q 206 16 250 0 q 121 67 161 32 q 33 321 33 144 q 93 583 33 497 q 229 676 153 668 q 363 736 285 736 q 491 679 442 736 q 540 524 540 622 q 456 342 540 408 q 289 257 386 286 q 450 193 338 193 q 519 199 482 193 m 347 456 q 243 549 347 540 l 243 424 q 254 324 243 361 q 347 456 347 375 m 227 804 q 206 813 227 804 q 150 849 185 821 q 115 906 115 876 q 128 961 115 936 q 154 996 142 986 l 167 1006 q 199 995 179 1001 q 269 967 218 989 q 358 924 319 946 q 428 872 396 903 q 460 818 460 840 q 438 747 460 781 q 403 753 425 750 q 325 772 381 757 q 227 804 269 788 z "},"é":{"ha":563,"x_min":33,"x_max":540,"o":"m 519 199 q 535 158 535 183 q 522 108 535 133 q 483 58 508 82 q 410 17 457 33 q 306 0 363 0 q 206 16 250 0 q 121 67 161 32 q 33 321 33 144 q 93 583 33 497 q 229 676 153 668 q 363 736 285 736 q 491 679 442 736 q 540 524 540 622 q 456 342 540 408 q 289 257 386 286 q 450 193 338 193 q 519 199 482 193 m 347 456 q 243 549 347 540 l 243 424 q 254 324 243 361 q 347 456 347 375 m 158 733 q 136 802 136 761 q 210 892 136 843 q 356 967 283 940 l 429 992 q 443 981 435 988 q 466 948 451 974 q 481 893 481 922 q 400 805 481 844 q 239 750 319 765 l 158 733 z "},"ê":{"ha":563,"x_min":33,"x_max":540,"o":"m 519 199 q 535 158 535 183 q 522 108 535 133 q 483 58 508 82 q 410 17 457 33 q 306 0 363 0 q 206 16 250 0 q 121 67 161 32 q 33 321 33 144 q 93 583 33 497 q 229 676 153 668 q 363 736 285 736 q 491 679 442 736 q 540 524 540 622 q 456 342 540 408 q 289 257 386 286 q 450 193 338 193 q 519 199 482 193 m 347 456 q 243 549 347 540 l 243 424 q 254 324 243 361 q 347 456 347 375 m 104 825 q 172 894 104 849 q 294 940 239 940 q 372 917 325 940 q 453 871 419 894 l 485 847 q 481 806 485 822 q 461 774 478 789 q 414 760 444 760 q 353 781 383 760 q 306 825 322 803 l 290 847 l 181 760 q 104 825 104 760 z "},"ë":{"ha":563,"x_min":33,"x_max":540,"o":"m 519 199 q 535 158 535 183 q 522 108 535 133 q 483 58 508 82 q 410 17 457 33 q 306 0 363 0 q 206 16 250 0 q 121 67 161 32 q 33 321 33 144 q 93 583 33 497 q 229 676 153 668 q 363 736 285 736 q 491 679 442 736 q 540 524 540 622 q 456 342 540 408 q 289 257 386 286 q 450 193 338 193 q 519 199 482 193 m 347 456 q 243 549 347 540 l 243 424 q 254 324 243 361 q 347 456 347 375 m 176 911 q 228 911 176 911 q 279 827 279 911 q 176 743 279 743 q 74 827 74 743 q 176 911 74 911 m 419 926 q 522 842 522 926 q 419 758 522 758 q 317 842 317 758 q 342 907 317 888 q 419 926 368 926 z "},"ì":{"ha":311,"x_min":-39,"x_max":306,"o":"m 158 0 q 44 164 44 0 q 54 713 44 581 q 147 742 83 742 q 257 568 257 742 l 257 156 l 288 85 q 272 61 282 75 q 229 24 263 47 q 158 0 196 0 m 73 815 q 52 824 73 815 q -4 860 31 832 q -39 917 -39 888 q -26 972 -39 947 q 0 1007 -14 997 l 13 1017 q 44 1006 25 1013 q 115 978 64 1000 q 203 935 165 957 q 274 883 242 914 q 306 829 306 851 q 283 758 306 792 q 249 765 271 761 q 171 783 226 768 q 73 815 115 799 z "},"í":{"ha":311,"x_min":0,"x_max":344,"o":"m 158 0 q 44 164 44 0 q 54 713 44 581 q 147 742 83 742 q 257 568 257 742 l 257 156 l 288 85 q 272 61 282 75 q 229 24 263 47 q 158 0 196 0 m 22 758 q 0 827 0 786 q 74 917 0 868 q 219 992 147 965 l 293 1017 q 307 1006 299 1013 q 330 973 315 999 q 344 918 344 947 q 264 830 344 869 q 103 775 183 790 l 22 758 z "},"î":{"ha":311,"x_min":-42,"x_max":339,"o":"m 158 0 q 44 164 44 0 q 54 713 44 581 q 147 742 83 742 q 257 568 257 742 l 257 156 l 288 85 q 272 61 282 75 q 229 24 263 47 q 158 0 196 0 m -42 822 q 26 893 -42 847 q 149 939 93 939 q 226 915 179 939 q 306 869 274 892 l 339 846 q 335 804 339 821 q 315 773 332 788 q 268 758 299 758 q 207 781 238 758 q 161 825 176 803 l 144 846 l 35 758 q -42 822 -42 758 z "},"ï":{"ha":311,"x_min":-72,"x_max":376,"o":"m 158 0 q 44 164 44 0 q 54 713 44 581 q 147 742 83 742 q 257 568 257 742 l 257 156 l 288 85 q 272 61 282 75 q 229 24 263 47 q 158 0 196 0 m 31 926 q 82 926 31 926 q 133 842 133 926 q 31 758 133 758 q -72 842 -72 758 q 31 926 -72 926 m 274 942 q 376 858 376 942 q 274 774 376 774 q 171 857 171 774 q 197 922 171 903 q 274 942 222 942 z "},"ð":{"ha":633,"x_min":32,"x_max":597,"o":"m 493 860 q 501 863 497 863 q 514 855 506 863 q 522 831 522 847 q 468 781 522 815 q 597 364 597 649 q 544 108 597 213 q 460 21 515 53 q 329 -11 406 -11 q 110 65 189 -11 q 32 294 32 142 q 104 523 32 446 q 300 607 176 600 q 263 665 293 622 l 181 624 q 160 632 169 624 q 151 653 151 640 q 221 714 151 669 l 169 757 q 169 790 165 768 q 182 825 172 811 q 219 850 192 839 q 286 861 246 861 q 417 821 356 861 l 493 860 m 343 151 q 349 157 343 151 q 360 209 354 164 q 367 328 367 254 q 357 449 367 401 q 282 399 310 446 q 254 268 254 353 q 313 138 254 138 q 343 151 332 138 z "},"ñ":{"ha":658,"x_min":14,"x_max":629,"o":"m 257 164 q 274 63 257 96 q 227 20 265 40 q 142 0 189 0 q 70 28 96 0 q 44 106 44 57 l 44 458 q 22 650 44 574 l 14 676 q 30 694 19 683 q 75 724 40 706 q 147 742 110 742 q 253 631 235 742 q 310 705 268 674 q 426 736 353 736 q 549 681 499 736 q 599 531 599 626 l 599 156 l 629 85 q 614 61 624 75 q 571 24 604 47 q 500 0 538 0 q 386 164 386 0 l 386 432 q 358 535 386 508 q 257 561 331 561 l 257 164 m 421 771 q 314 794 385 771 q 208 817 243 817 q 142 788 174 817 q 101 856 101 810 q 208 957 101 957 q 313 934 242 957 q 417 911 385 911 q 485 943 450 911 q 524 861 524 914 q 421 771 524 771 z "},"ò":{"ha":608,"x_min":29,"x_max":579,"o":"m 579 403 q 493 103 579 207 q 278 0 407 0 q 115 64 188 0 q 53 165 76 97 q 29 325 29 232 q 82 540 29 465 q 196 629 135 614 q 289 725 218 697 q 360 736 321 736 q 579 403 579 736 m 228 378 q 303 167 228 167 q 369 365 369 167 q 338 502 369 463 q 251 542 307 542 q 228 378 228 497 m 231 799 q 210 807 231 799 q 154 843 189 815 q 119 901 119 871 q 132 956 119 931 q 158 990 144 981 l 171 1000 q 203 990 183 996 q 273 962 222 983 q 362 919 324 940 q 432 866 400 897 q 464 813 464 835 q 442 742 464 775 q 407 748 429 744 q 329 767 385 751 q 231 799 274 782 z "},"ó":{"ha":608,"x_min":29,"x_max":579,"o":"m 579 403 q 493 103 579 207 q 278 0 407 0 q 115 64 188 0 q 53 165 76 97 q 29 325 29 232 q 82 540 29 465 q 196 629 135 614 q 289 725 218 697 q 360 736 321 736 q 579 403 579 736 m 228 378 q 303 167 228 167 q 369 365 369 167 q 338 502 369 463 q 251 542 307 542 q 228 378 228 497 m 149 719 q 126 788 126 747 q 199 878 126 829 q 346 953 272 926 l 419 978 q 433 967 425 974 q 456 934 442 960 q 471 879 471 908 q 390 791 471 831 q 229 736 310 751 l 149 719 z "},"ô":{"ha":608,"x_min":29,"x_max":579,"o":"m 579 403 q 493 103 579 207 q 278 0 407 0 q 115 64 188 0 q 53 165 76 97 q 29 325 29 232 q 82 540 29 465 q 196 629 135 614 q 289 725 218 697 q 360 736 321 736 q 579 403 579 736 m 228 378 q 303 167 228 167 q 369 365 369 167 q 338 502 369 463 q 251 542 307 542 q 228 378 228 497 m 108 811 q 176 882 108 836 q 299 928 243 928 q 376 904 329 928 q 456 858 424 881 l 489 835 q 485 793 489 810 q 465 762 482 776 q 418 747 449 747 q 357 769 388 747 q 311 814 326 792 l 294 835 l 185 747 q 108 811 108 747 z "},"õ":{"ha":608,"x_min":29,"x_max":579,"o":"m 579 403 q 493 103 579 207 q 278 0 407 0 q 115 64 188 0 q 53 165 76 97 q 29 325 29 232 q 82 540 29 465 q 196 629 135 614 q 289 725 218 697 q 360 736 321 736 q 579 403 579 736 m 228 378 q 303 167 228 167 q 369 365 369 167 q 338 502 369 463 q 251 542 307 542 q 228 378 228 497 m 415 758 q 308 781 379 758 q 204 804 238 804 q 136 775 171 804 q 96 844 96 797 q 203 944 96 944 q 308 922 236 944 q 413 899 379 899 q 479 931 447 899 q 518 849 518 901 q 415 758 518 758 z "},"ö":{"ha":608,"x_min":29,"x_max":579,"o":"m 579 403 q 493 103 579 207 q 278 0 407 0 q 115 64 188 0 q 53 165 76 97 q 29 325 29 232 q 82 540 29 465 q 196 629 135 614 q 289 725 218 697 q 360 736 321 736 q 579 403 579 736 m 228 378 q 303 167 228 167 q 369 365 369 167 q 338 502 369 463 q 251 542 307 542 q 228 378 228 497 m 188 899 q 239 899 188 899 q 290 815 290 899 q 188 731 290 731 q 85 815 85 731 q 188 899 85 899 m 431 914 q 533 830 533 914 q 431 746 533 746 q 328 829 328 746 q 353 894 328 875 q 431 914 379 914 z "},"÷":{"ha":624,"x_min":32,"x_max":592,"o":"m 178 289 q 65 310 97 289 q 32 388 32 331 q 60 475 32 436 q 394 457 132 457 q 581 414 553 457 q 592 372 592 396 q 583 318 592 338 q 178 289 475 289 m 443 107 q 310 0 443 0 q 176 107 176 0 q 310 217 176 217 q 443 107 443 217 m 176 637 q 176 691 176 637 q 310 744 176 744 q 443 637 443 744 q 310 529 443 529 q 176 637 176 529 z "},"ø":{"ha":608,"x_min":29,"x_max":579,"o":"m 360 736 l 375 735 q 415 818 397 797 q 453 839 433 839 q 494 819 482 839 l 499 814 l 464 711 q 579 403 579 644 q 493 103 579 207 q 278 0 407 0 q 229 4 254 0 q 156 -93 189 -93 q 131 -87 139 -93 q 124 -76 124 -82 l 124 -71 q 156 32 136 -29 q 29 325 29 110 q 82 540 29 465 q 196 629 135 614 q 289 725 218 697 q 360 736 321 736 m 301 133 q 368 350 368 133 q 364 410 368 383 l 275 142 q 301 133 285 133 m 228 363 q 231 272 228 322 q 310 525 272 400 q 251 542 285 542 q 228 363 228 493 z "},"ù":{"ha":625,"x_min":14,"x_max":603,"o":"m 390 722 q 412 732 390 722 q 473 742 433 742 q 542 706 513 742 q 572 624 572 669 l 572 156 l 603 85 q 588 61 597 75 q 544 24 578 47 q 474 0 511 0 q 367 93 389 0 q 315 27 350 54 q 232 0 281 0 q 97 53 149 0 q 44 190 44 107 l 44 581 l 14 676 q 76 722 33 701 q 158 742 118 742 q 228 706 199 742 q 257 624 257 669 l 257 286 q 276 201 257 226 q 360 175 294 176 l 360 581 l 328 676 q 390 722 347 701 m 220 808 q 199 817 220 808 q 143 853 178 825 q 108 910 108 881 q 121 965 108 940 q 147 1000 133 990 l 160 1010 q 192 999 172 1006 q 262 972 211 993 q 351 928 313 950 q 421 876 389 907 q 453 822 453 844 q 431 751 453 782 q 396 758 418 754 q 318 776 374 761 q 220 808 263 792 z "},"ú":{"ha":625,"x_min":14,"x_max":603,"o":"m 390 722 q 412 732 390 722 q 473 742 433 742 q 542 706 513 742 q 572 624 572 669 l 572 156 l 603 85 q 588 61 597 75 q 544 24 578 47 q 474 0 511 0 q 367 93 389 0 q 315 27 350 54 q 232 0 281 0 q 97 53 149 0 q 44 190 44 107 l 44 581 l 14 676 q 76 722 33 701 q 158 742 118 742 q 228 706 199 742 q 257 624 257 669 l 257 286 q 276 201 257 226 q 360 175 294 176 l 360 581 l 328 676 q 390 722 347 701 m 250 726 q 228 795 228 754 q 301 885 228 836 q 447 958 375 933 l 521 985 q 535 974 526 981 q 558 941 543 967 q 572 886 572 915 q 492 798 572 838 q 331 742 411 758 l 250 726 z "},"û":{"ha":625,"x_min":14,"x_max":603,"o":"m 390 722 q 412 732 390 722 q 473 742 433 742 q 542 706 513 742 q 572 624 572 669 l 572 156 l 603 85 q 588 61 597 75 q 544 24 578 47 q 474 0 511 0 q 367 93 389 0 q 315 27 350 54 q 232 0 281 0 q 97 53 149 0 q 44 190 44 107 l 44 581 l 14 676 q 76 722 33 701 q 158 742 118 742 q 228 706 199 742 q 257 624 257 669 l 257 286 q 276 201 257 226 q 360 175 294 176 l 360 581 l 328 676 q 390 722 347 701 m 114 822 q 181 893 114 847 q 304 939 249 939 q 382 915 335 939 q 461 869 429 892 l 494 846 q 491 804 494 821 q 471 773 488 788 q 424 758 454 758 q 363 781 393 758 q 317 825 332 803 l 300 846 l 190 758 q 114 822 114 758 z "},"ü":{"ha":625,"x_min":14,"x_max":603,"o":"m 390 722 q 412 732 390 722 q 473 742 433 742 q 542 706 513 742 q 572 624 572 669 l 572 156 l 603 85 q 588 61 597 75 q 544 24 578 47 q 474 0 511 0 q 367 93 389 0 q 315 27 350 54 q 232 0 281 0 q 97 53 149 0 q 44 190 44 107 l 44 581 l 14 676 q 76 722 33 701 q 158 742 118 742 q 228 706 199 742 q 257 624 257 669 l 257 286 q 276 201 257 226 q 360 175 294 176 l 360 581 l 328 676 q 390 722 347 701 m 190 940 q 242 940 190 940 q 293 856 293 940 q 190 772 293 772 q 88 856 88 772 q 190 940 88 940 m 433 956 q 536 872 536 956 q 433 788 536 788 q 331 871 331 788 q 356 936 331 917 q 433 956 382 956 z "},"ý":{"ha":617,"x_min":14,"x_max":572,"o":"m 35 -107 q 28 -47 28 -72 q 35 -1 28 -22 q 67 39 42 21 q 131 57 92 57 q 218 32 169 57 q 294 7 267 7 q 360 89 360 7 l 360 154 q 232 89 324 89 q 92 139 140 89 q 44 263 44 189 l 44 581 l 14 676 q 76 722 33 701 q 158 742 118 742 q 228 706 199 742 q 257 624 257 669 l 257 310 q 281 246 257 261 q 360 229 306 231 l 360 581 l 328 676 q 390 722 347 701 q 473 742 433 742 q 542 706 513 742 q 572 624 572 669 l 572 138 q 502 -84 572 -8 q 293 -160 432 -160 q 147 -133 215 -160 q 35 -107 78 -107 m 247 721 q 225 790 225 749 q 299 879 225 831 q 444 953 372 928 l 518 979 q 532 968 524 975 q 555 935 540 961 q 569 881 569 910 q 489 792 569 832 q 328 736 408 753 l 247 721 z "},"þ":{"ha":643,"x_min":14,"x_max":599,"o":"m 257 -139 q 153 -169 213 -169 q 69 -146 93 -169 q 44 -69 44 -122 l 44 713 l 14 808 q 30 826 19 815 q 75 856 40 838 q 147 875 110 875 q 257 701 257 875 l 257 674 q 413 736 326 736 q 549 680 500 736 q 599 531 599 624 l 599 350 q 499 111 599 222 q 276 0 399 0 l 257 0 l 257 -139 m 257 178 q 311 161 278 161 q 365 182 344 161 q 386 240 386 203 l 386 442 q 350 542 386 515 q 304 556 328 556 q 257 549 281 556 l 257 178 z "},"ÿ":{"ha":617,"x_min":14,"x_max":572,"o":"m 35 -107 q 28 -47 28 -72 q 35 -1 28 -22 q 67 39 42 21 q 131 57 92 57 q 218 32 169 57 q 294 7 267 7 q 360 89 360 7 l 360 154 q 232 89 324 89 q 92 139 140 89 q 44 263 44 189 l 44 581 l 14 676 q 76 722 33 701 q 158 742 118 742 q 228 706 199 742 q 257 624 257 669 l 257 310 q 281 246 257 261 q 360 229 306 231 l 360 581 l 328 676 q 390 722 347 701 q 473 742 433 742 q 542 706 513 742 q 572 624 572 669 l 572 138 q 502 -84 572 -8 q 293 -160 432 -160 q 147 -133 215 -160 q 35 -107 78 -107 m 185 942 q 236 942 185 942 q 288 858 288 942 q 185 774 288 774 q 82 858 82 774 q 185 942 82 942 m 428 957 q 531 873 531 957 q 428 789 531 789 q 325 872 325 789 q 351 938 325 918 q 428 957 376 957 z "},"ı":{"ha":311,"x_min":44,"x_max":288,"o":"m 158 0 q 44 164 44 0 q 54 713 44 581 q 147 742 83 742 q 257 568 257 742 l 257 156 l 288 85 q 272 61 282 75 q 229 24 263 47 q 158 0 196 0 z "},"Ł":{"ha":551,"x_min":-11,"x_max":535,"o":"m 481 294 q 535 185 535 274 q 499 61 535 122 q 401 0 463 0 l 167 11 q 71 0 113 11 q 21 143 21 69 q 82 226 21 217 l 69 444 q 39 443 58 443 q -11 483 -11 443 q 6 518 -11 504 l 65 526 l 42 939 q 218 1001 143 1001 q 334 959 293 1001 q 375 824 375 917 q 369 574 375 732 l 408 579 q 453 539 453 579 q 442 513 453 521 q 367 497 411 506 q 354 263 364 421 l 481 294 z "},"ł":{"ha":311,"x_min":-11,"x_max":314,"o":"m 283 579 q 314 539 314 579 q 313 529 314 533 l 310 513 q 257 494 288 504 l 257 156 l 288 85 q 272 61 282 75 q 229 24 263 47 q 158 0 196 0 q 44 164 44 0 l 44 443 q 29 442 39 442 q -11 483 -11 442 q 0 519 -11 503 q 44 531 18 524 l 44 692 q 22 883 44 807 l 14 910 q 30 928 19 917 q 75 958 40 939 q 147 976 110 976 q 257 803 257 976 l 257 576 q 283 579 279 579 z "},"Œ":{"ha":1158,"x_min":26,"x_max":1151,"o":"m 1121 500 q 1129 413 1129 432 q 1110 372 1129 394 q 1044 349 1090 349 l 851 349 q 915 231 863 247 q 944 226 928 226 q 1113 271 1001 226 q 1150 192 1144 256 q 1151 179 1151 185 q 1088 60 1151 121 q 875 0 1025 0 q 640 85 725 0 q 394 -1 538 -1 q 124 107 222 -1 q 26 428 26 215 q 54 637 26 544 q 128 783 82 729 q 314 913 215 889 q 483 985 376 985 q 597 965 549 985 q 686 992 629 992 q 728 992 692 992 q 885 978 765 992 q 1135 965 1004 965 q 1151 833 1151 924 q 1128 697 1151 742 q 1051 651 1106 651 l 856 656 q 844 506 844 586 l 844 496 q 1121 500 1099 500 m 318 478 q 435 161 318 161 q 517 232 488 161 q 547 436 547 303 q 490 649 547 569 q 353 765 432 728 q 318 478 318 632 z "},"œ":{"ha":903,"x_min":29,"x_max":881,"o":"m 860 199 q 875 158 875 183 q 862 108 875 133 q 823 58 849 82 q 750 17 797 33 q 643 0 703 0 q 460 68 529 0 q 278 0 383 0 q 115 64 188 0 q 53 165 76 97 q 29 325 29 232 q 82 540 29 465 q 196 629 135 614 q 289 725 218 697 q 360 736 321 736 q 518 661 465 736 q 569 676 540 672 q 703 736 625 736 q 831 679 782 736 q 881 524 881 622 q 794 342 881 408 q 629 257 726 286 q 790 193 678 193 q 860 199 822 193 m 228 363 q 301 133 228 133 q 368 350 368 133 q 251 542 368 542 q 228 363 228 493 m 688 456 q 583 549 688 540 l 583 424 q 594 324 583 361 q 688 456 688 375 z "},"Š":{"ha":717,"x_min":42,"x_max":693,"o":"m 678 292 q 590 82 678 164 q 339 0 503 0 q 108 48 175 0 q 42 154 42 96 q 56 231 42 207 q 101 285 79 271 q 226 211 156 244 q 332 178 296 178 q 383 185 368 178 q 401 199 399 192 q 404 221 404 207 q 367 272 404 247 q 276 322 329 296 q 169 380 222 347 q 79 469 117 413 q 42 595 42 526 q 74 722 42 664 q 154 818 106 781 q 163 858 154 838 l 143 872 q 179 953 143 938 q 219 961 196 961 q 261 953 242 961 q 446 990 340 990 q 693 783 693 990 q 582 611 693 657 q 297 733 506 694 q 378 600 303 653 q 453 555 413 576 q 533 510 493 533 q 606 458 572 486 q 678 292 678 396 z "},"š":{"ha":522,"x_min":11,"x_max":497,"o":"m 217 558 q 317 458 217 503 q 398 416 357 439 q 468 349 439 393 q 497 243 497 306 q 423 67 497 133 q 240 0 349 0 q 71 48 131 0 q 11 149 11 96 q 28 213 11 185 q 64 251 46 242 l 81 261 q 105 230 89 249 q 168 181 121 211 q 249 150 215 150 q 297 160 283 150 q 310 183 310 171 q 266 233 310 207 q 171 283 222 260 q 76 350 119 306 q 32 451 32 394 q 66 560 32 508 q 146 632 100 611 q 202 710 153 676 q 326 743 251 743 q 447 708 401 743 q 493 615 493 674 q 476 531 493 557 q 424 489 460 504 q 217 571 363 557 l 217 558 m 481 894 q 406 819 481 865 q 271 772 332 772 q 184 797 238 772 q 94 844 131 821 l 58 869 q 94 950 58 935 q 141 958 111 958 q 205 936 171 958 q 257 892 239 914 l 275 869 l 397 958 q 469 931 447 958 q 481 894 481 917 z "},"Ÿ":{"ha":793,"x_min":19,"x_max":764,"o":"m 719 675 q 535 286 615 364 q 558 40 544 133 q 389 0 490 0 q 292 24 331 0 q 254 85 253 47 q 260 285 254 194 q 224 340 236 307 l 19 867 q 39 903 24 881 q 72 939 54 925 q 203 979 124 979 q 294 933 264 979 q 344 815 328 882 q 369 703 360 747 q 393 582 378 658 q 422 444 408 506 l 518 957 q 646 985 557 985 q 747 949 725 985 q 764 865 764 922 q 719 675 764 807 m 297 1165 q 349 1165 297 1165 q 400 1081 400 1165 q 297 997 400 997 q 194 1081 194 997 q 297 1165 194 1165 m 540 1181 q 643 1097 643 1181 q 540 1013 643 1013 q 438 1096 438 1013 q 463 1161 438 1142 q 540 1181 489 1181 z "},"Ž":{"ha":681,"x_min":35,"x_max":654,"o":"m 306 653 q 271 654 297 653 q 192 656 244 656 q 69 640 140 656 q 35 796 35 701 q 206 992 35 992 q 433 984 299 992 q 607 976 567 976 q 620 963 613 972 q 641 908 628 953 q 654 791 654 864 q 600 676 654 718 q 553 564 590 624 q 483 467 517 504 q 380 360 450 431 q 283 261 310 290 q 432 244 419 244 q 617 264 507 244 q 635 145 635 185 q 625 85 635 106 q 594 43 615 65 q 455 0 556 0 q 288 9 354 0 q 200 28 222 18 l 178 36 q 122 0 165 0 q 58 35 79 0 q 36 94 36 69 q 83 221 36 175 q 200 414 101 289 q 300 535 235 457 q 392 646 365 614 q 351 649 388 646 l 306 653 z "},"ž":{"ha":518,"x_min":35,"x_max":501,"o":"m 471 729 q 499 625 499 681 q 495 583 499 611 q 468 533 492 556 q 376 353 447 478 q 285 192 306 229 q 499 181 469 181 l 501 119 q 454 11 501 40 q 405 0 435 0 q 306 6 375 0 q 182 13 236 13 q 92 0 128 13 q 49 39 64 10 q 35 88 35 68 q 89 181 35 157 q 144 279 104 208 q 265 510 235 442 l 54 510 q 39 602 39 564 q 43 664 39 640 q 71 712 47 688 q 126 736 94 736 q 254 733 157 736 q 471 729 351 729 m 482 892 q 408 816 482 863 q 272 769 333 769 q 185 794 239 769 q 96 842 132 818 l 60 867 q 96 947 60 932 q 142 956 113 956 q 206 933 172 956 q 258 889 240 911 l 276 867 l 399 956 q 469 928 449 956 q 482 892 482 914 z "},"ƒ":{"ha":506,"x_min":14,"x_max":518,"o":"m 385 485 l 322 485 q 324 301 324 443 q 267 44 324 158 q 138 -69 210 -69 q 70 -47 100 -69 q 28 0 40 -24 l 17 22 q 29 38 21 28 q 57 83 38 49 q 92 156 76 118 q 132 340 132 254 q 125 485 132 426 l 36 485 q 14 551 14 506 q 97 632 14 608 l 89 667 q 81 719 81 701 q 347 938 81 938 q 465 910 422 938 q 514 844 508 882 q 517 810 517 829 q 508 761 517 792 q 476 708 500 731 q 375 729 457 729 q 326 715 340 729 q 313 668 313 701 l 313 651 q 460 654 401 654 q 488 578 488 633 q 462 504 488 524 q 385 485 436 485 z "},"ˆ":{"ha":725,"x_min":149,"x_max":529,"o":"m 149 1075 q 216 1146 149 1100 q 339 1192 283 1192 q 417 1168 369 1192 q 497 1122 464 1144 l 529 1099 q 526 1057 529 1074 q 506 1026 522 1040 q 458 1011 489 1011 q 397 1033 428 1011 q 350 1078 367 1056 l 335 1099 l 225 1011 q 149 1075 149 1011 z "},"ˇ":{"ha":725,"x_min":140,"x_max":563,"o":"m 563 892 q 488 816 563 863 q 353 769 414 769 q 266 794 319 769 q 176 842 213 818 l 140 867 q 176 947 140 932 q 223 956 193 956 q 287 933 253 956 q 339 889 321 911 l 357 867 l 479 956 q 550 928 529 956 q 563 892 563 914 z "},"˘":{"ha":618,"x_min":97,"x_max":521,"o":"m 313 1176 q 431 1251 390 1176 q 481 1236 460 1251 q 521 1160 521 1208 q 472 1071 521 1111 q 321 1031 422 1031 q 158 1077 219 1031 q 97 1186 97 1124 q 117 1244 97 1218 q 179 1269 138 1269 q 258 1186 199 1210 q 313 1176 282 1176 z "},"˙":{"ha":567,"x_min":146,"x_max":421,"o":"m 421 1140 q 283 1031 421 1031 q 146 1140 146 1031 q 283 1254 146 1254 q 421 1140 421 1254 z "},"˚":{"ha":558,"x_min":97,"x_max":461,"o":"m 461 1158 q 279 1011 461 1011 q 97 1158 97 1011 q 276 1308 97 1308 q 414 1274 367 1308 q 461 1158 461 1240 m 278 1113 q 304 1113 278 1113 q 331 1156 331 1113 q 278 1199 331 1199 q 225 1156 225 1199 q 278 1113 225 1113 z "},"˛":{"ha":643,"x_min":164,"x_max":481,"o":"m 481 -233 q 481 -253 481 -233 q 447 -300 481 -274 q 335 -326 414 -326 q 210 -277 256 -326 q 164 -149 164 -228 q 223 -18 164 -69 q 378 33 282 33 q 409 21 400 33 q 410 -6 418 8 q 324 -122 324 -57 q 389 -187 324 -187 q 456 -176 417 -187 q 481 -233 481 -193 z "},"˜":{"ha":729,"x_min":150,"x_max":572,"o":"m 469 1031 q 363 1053 433 1031 q 258 1076 292 1076 q 190 1047 225 1076 q 150 1117 150 1069 q 257 1217 150 1217 q 362 1194 290 1217 q 467 1171 433 1171 q 533 1203 501 1171 q 572 1121 572 1174 q 469 1031 572 1031 z "},"˝":{"ha":872,"x_min":97,"x_max":775,"o":"m 119 1011 q 97 1080 97 1039 q 171 1169 97 1121 q 317 1244 244 1218 l 390 1269 q 404 1258 396 1265 q 427 1226 413 1251 q 442 1171 442 1200 q 361 1083 442 1122 q 200 1028 281 1043 l 119 1011 m 451 1011 q 431 1080 431 1039 q 503 1169 431 1121 q 650 1244 576 1218 l 722 1269 q 737 1258 728 1265 q 760 1226 746 1251 q 775 1171 775 1200 q 694 1083 775 1122 q 533 1028 614 1043 l 451 1011 z "},"π":{"ha":938,"x_min":32,"x_max":906,"o":"m 39 115 q 57 196 39 168 l 104 196 q 167 268 150 196 q 179 394 179 322 q 178 510 179 467 l 82 499 q 47 544 63 514 q 32 607 32 575 q 201 738 32 738 q 430 729 294 738 q 628 721 565 721 q 806 736 717 721 l 836 740 q 883 700 861 732 q 906 631 906 668 q 771 500 906 517 l 771 310 q 792 222 771 243 q 853 201 814 201 l 885 200 q 904 118 904 176 q 865 30 904 60 q 715 0 826 0 q 552 70 603 0 q 501 296 501 140 l 504 506 q 374 511 418 508 q 382 269 382 407 q 334 65 382 131 q 188 0 286 0 q 39 115 39 0 z "},"–":{"ha":588,"x_min":32,"x_max":556,"o":"m 108 283 q 52 308 72 283 q 32 377 32 332 q 60 461 32 422 l 478 461 q 556 369 556 461 q 538 306 556 324 q 167 283 221 283 q 108 283 113 283 z "},"—":{"ha":732,"x_min":32,"x_max":699,"o":"m 108 283 q 52 308 72 283 q 32 377 32 332 q 60 461 32 422 l 622 461 q 699 369 699 461 q 682 306 699 325 q 167 283 221 283 q 108 283 113 283 z "},"‘":{"ha":308,"x_min":49,"x_max":257,"o":"m 211 872 q 218 874 211 872 q 241 860 225 875 q 257 811 257 844 q 232 756 257 778 q 161 735 207 735 q 49 839 49 735 q 90 970 49 914 q 200 1026 131 1026 q 242 1015 228 1026 q 256 990 256 1003 l 257 978 q 194 872 204 932 q 211 872 197 869 z "},"’":{"ha":308,"x_min":50,"x_max":260,"o":"m 97 889 q 90 888 97 889 q 67 901 83 886 q 50 950 50 917 q 75 1005 50 983 q 147 1026 100 1026 q 260 922 260 1026 q 218 791 260 847 q 106 735 176 735 q 65 747 79 735 q 50 771 51 758 l 50 783 q 114 889 103 829 q 97 889 111 892 z "},"‚":{"ha":375,"x_min":50,"x_max":326,"o":"m 133 39 q 120 40 131 42 q 100 38 110 38 q 70 56 90 38 q 50 119 50 75 q 84 192 50 163 q 179 221 118 221 q 326 81 326 221 q 272 -92 326 -18 q 126 -167 218 -167 q 72 -150 92 -167 q 51 -117 53 -133 l 50 -101 q 102 -38 76 -79 q 133 39 128 3 z "},"“":{"ha":529,"x_min":49,"x_max":478,"o":"m 211 872 q 218 874 211 872 q 241 860 225 875 q 257 811 257 844 q 232 756 257 778 q 161 735 207 735 q 49 839 49 735 q 90 970 49 914 q 200 1026 131 1026 q 242 1015 228 1026 q 256 990 256 1003 l 257 978 q 194 872 204 932 q 211 872 197 869 m 432 872 q 439 874 432 872 q 462 860 446 875 q 478 811 478 844 q 453 756 478 778 q 382 735 429 735 q 269 839 269 735 q 310 970 269 914 q 422 1026 351 1026 q 463 1015 449 1026 q 478 990 476 1003 l 478 978 q 415 872 425 932 q 432 872 418 869 z "},"”":{"ha":529,"x_min":50,"x_max":481,"o":"m 318 889 q 311 888 318 889 q 288 901 304 886 q 271 950 271 917 q 296 1005 271 983 q 368 1026 321 1026 q 481 922 481 1026 q 440 791 481 847 q 328 735 399 735 q 287 747 301 735 q 272 771 272 758 l 271 783 q 335 889 324 829 q 318 889 332 892 m 97 889 q 90 888 97 889 q 67 901 83 886 q 50 950 50 917 q 75 1005 50 983 q 147 1026 100 1026 q 260 922 260 1026 q 218 791 260 847 q 106 735 176 735 q 65 747 79 735 q 50 771 51 758 l 50 783 q 114 889 103 829 q 97 889 111 892 z "},"„":{"ha":690,"x_min":50,"x_max":642,"o":"m 133 39 q 120 40 131 42 q 100 38 110 38 q 70 56 90 38 q 50 119 50 75 q 84 192 50 163 q 179 221 118 221 q 326 81 326 221 q 272 -92 326 -18 q 126 -167 218 -167 q 72 -150 92 -167 q 51 -117 53 -133 l 50 -101 q 102 -38 76 -79 q 133 39 128 3 m 449 39 q 435 40 446 42 q 415 38 425 38 q 385 56 406 38 q 365 119 365 75 q 399 192 365 163 q 494 221 433 221 q 642 81 642 221 q 588 -92 642 -18 q 442 -167 533 -167 q 388 -150 407 -167 q 367 -117 368 -133 l 365 -101 q 417 -38 392 -79 q 449 39 443 3 z "},"†":{"ha":628,"x_min":32,"x_max":594,"o":"m 321 967 q 428 932 390 967 q 426 701 428 771 q 525 703 457 703 q 586 642 568 681 q 594 608 594 626 q 564 527 594 553 q 465 501 533 501 l 424 501 q 369 25 418 82 q 294 -1 346 -1 q 229 17 249 -1 l 222 22 q 196 504 204 192 l 74 507 q 45 537 58 513 q 32 596 32 561 q 65 653 32 631 q 193 688 99 675 l 193 819 q 321 967 193 967 z "},"‡":{"ha":625,"x_min":32,"x_max":593,"o":"m 524 747 q 593 656 593 713 q 563 573 593 599 q 464 547 532 547 l 425 547 l 422 447 l 500 447 q 547 410 524 439 q 569 353 569 382 q 544 272 569 296 q 451 247 518 247 l 415 247 q 353 11 400 42 q 303 -1 333 -1 q 228 17 246 -1 l 222 22 q 206 250 214 101 l 96 253 q 67 283 81 258 q 54 346 54 308 q 79 405 54 383 q 197 438 104 426 l 194 549 l 72 554 q 44 584 57 560 q 32 643 32 608 q 65 700 32 678 q 192 735 97 722 l 192 819 q 319 967 192 967 q 426 932 389 967 l 426 746 q 524 747 458 747 z "},"•":{"ha":463,"x_min":46,"x_max":417,"o":"m 231 183 q 188 183 231 183 q 95 237 144 183 q 46 372 46 290 q 96 509 46 454 q 231 564 146 564 q 367 509 317 564 q 417 372 417 454 q 367 237 417 290 q 231 183 317 183 z "},"…":{"ha":993,"x_min":32,"x_max":961,"o":"m 299 106 q 165 -1 299 -1 q 32 106 32 -1 q 165 215 32 215 q 299 106 299 215 m 631 106 q 497 -1 631 -1 q 364 106 364 -1 q 497 215 364 215 q 631 106 631 215 m 961 106 q 828 -1 961 -1 q 694 106 694 -1 q 828 215 694 215 q 961 106 961 215 z "},"‰":{"ha":1488,"x_min":32,"x_max":1454,"o":"m 349 -22 q 283 29 283 -22 q 318 136 283 67 l 644 744 q 663 747 651 747 q 690 747 675 747 q 721 740 706 746 q 749 718 736 735 q 761 679 761 701 q 760 647 761 657 q 754 622 758 636 q 738 587 750 608 q 710 538 725 565 q 662 460 694 511 q 594 349 629 408 q 499 191 558 290 q 374 -18 439 92 q 349 -22 368 -22 m 447 514 q 388 342 447 403 q 236 281 329 281 q 88 338 143 281 q 32 500 32 396 q 85 670 32 604 q 253 736 139 736 q 447 514 447 736 m 239 372 q 280 399 268 372 q 292 490 292 425 q 279 576 292 554 q 239 599 267 599 q 199 576 211 599 q 188 489 188 554 q 239 372 188 372 m 1008 218 q 949 46 1008 107 q 796 -15 889 -15 q 648 42 703 -15 q 593 204 593 100 q 647 374 593 308 q 814 440 700 440 q 1008 218 1008 440 m 800 76 q 841 103 829 76 q 853 194 853 129 q 840 281 853 258 q 800 303 828 303 q 760 281 772 303 q 747 193 747 258 q 800 76 747 76 m 1454 218 q 1395 46 1454 107 q 1243 -15 1336 -15 q 1094 42 1150 -15 q 1039 204 1039 100 q 1092 374 1039 308 q 1260 440 1146 440 q 1454 218 1454 440 m 1246 76 q 1287 103 1275 76 q 1299 194 1299 129 q 1286 281 1299 258 q 1246 303 1274 303 q 1206 281 1218 303 q 1194 193 1194 258 q 1246 76 1194 76 z "},"‹":{"ha":568,"x_min":32,"x_max":535,"o":"m 535 197 q 529 166 535 189 q 514 126 524 143 q 481 94 504 108 q 426 79 458 79 q 262 129 357 79 q 99 243 167 179 q 32 345 32 307 q 111 450 32 383 q 417 647 246 560 q 478 614 451 636 q 529 528 529 572 q 456 439 529 485 q 311 371 383 393 l 238 349 l 535 213 l 535 197 z "},"›":{"ha":568,"x_min":33,"x_max":536,"o":"m 33 531 q 39 561 33 539 q 54 601 44 583 q 87 633 64 618 q 142 647 110 647 q 306 597 211 647 q 469 483 401 547 q 536 381 536 419 q 456 278 536 343 q 151 79 322 167 q 75 128 110 93 q 40 196 40 163 q 113 288 40 243 q 258 356 186 333 l 331 378 l 33 515 l 33 531 z "},"⁄":{"ha":500,"x_min":-7,"x_max":497,"o":"m 244 132 q 183 9 214 47 q 107 -29 153 -29 q 35 -16 61 -29 q 0 11 8 -3 l -7 24 q 144 485 64 206 q 242 824 224 764 q 371 944 281 944 q 451 921 419 944 q 489 875 482 897 l 497 851 q 292 272 431 693 l 244 132 z "},"€":{"ha":644,"x_min":28,"x_max":611,"o":"m 113 358 q 47 369 65 358 q 28 402 28 379 q 44 442 28 425 l 140 442 q 313 678 176 610 q 414 743 343 743 q 513 715 458 743 q 606 686 567 686 q 610 579 610 613 q 581 514 610 546 q 488 482 553 482 q 374 563 422 482 q 353 442 363 525 l 478 442 q 568 393 568 442 l 561 368 q 351 360 488 363 l 354 324 l 478 324 q 568 275 568 324 l 561 250 q 378 243 496 246 q 499 168 417 168 q 607 193 546 168 l 611 172 q 611 160 611 169 q 606 122 611 150 q 584 67 601 93 q 522 21 567 42 q 408 0 476 0 q 136 240 175 0 l 113 240 q 47 251 65 240 q 28 285 28 261 q 44 324 28 310 l 129 324 l 129 358 l 113 358 z "},"™":{"ha":932,"x_min":32,"x_max":900,"o":"m 744 982 l 763 981 q 807 985 800 985 q 881 965 863 985 q 900 901 900 946 q 888 744 900 900 q 876 508 876 588 q 792 493 839 493 q 746 540 746 493 l 740 761 q 640 525 690 525 l 631 525 q 592 536 607 525 q 521 751 557 565 q 517 508 517 672 q 457 494 488 494 q 400 540 403 494 l 375 951 q 465 985 392 985 q 499 978 489 985 q 532 981 515 981 l 544 981 q 592 943 579 981 q 638 683 604 906 q 692 940 676 897 q 744 982 707 982 m 32 883 q 110 981 32 981 q 135 981 114 981 q 303 969 196 981 l 340 967 q 349 869 349 922 q 294 765 349 765 l 261 765 q 278 515 264 615 q 199 493 242 493 q 134 506 156 493 q 114 540 113 519 q 122 768 114 635 q 53 765 97 768 q 32 883 32 819 z "},"Ω":{"ha":910,"x_min":49,"x_max":861,"o":"m 56 571 q 161 870 56 756 q 465 985 267 985 q 759 869 664 985 q 854 569 854 753 q 835 443 854 504 q 790 342 817 382 q 692 225 735 256 l 674 211 l 810 210 q 824 201 815 207 q 847 172 832 196 q 861 117 861 149 q 821 15 861 50 q 700 -21 781 -21 q 531 3 554 -21 l 522 11 q 518 100 518 57 q 526 198 518 143 q 550 288 533 253 q 599 519 599 383 q 562 648 599 603 q 463 693 525 693 q 365 649 400 693 q 331 524 331 604 q 347 383 331 444 q 380 288 363 322 q 406 200 397 254 q 414 103 414 146 q 408 11 414 61 q 250 -21 371 -21 q 89 15 129 -21 q 49 117 49 50 q 61 172 49 149 q 86 203 74 194 l 99 210 l 229 210 q 75 444 118 299 q 56 571 56 506 z "},"∂":{"ha":633,"x_min":32,"x_max":597,"o":"m 329 -11 q 110 65 189 -11 q 32 294 32 142 q 104 523 32 446 q 300 607 176 600 q 242 690 275 653 q 189 742 210 728 l 169 757 q 169 790 165 768 q 182 825 172 811 q 219 850 192 839 q 286 861 246 861 q 506 735 415 861 q 597 364 597 608 q 544 108 597 213 q 460 21 515 53 q 329 -11 406 -11 m 343 151 q 349 157 343 151 q 360 209 354 164 q 367 328 367 254 q 357 449 367 401 q 282 399 310 446 q 254 268 254 353 q 313 138 254 138 q 343 151 332 138 z "},"∆":{"ha":782,"x_min":14,"x_max":768,"o":"m 153 1 l 129 0 q 53 28 82 0 q 19 83 25 56 l 14 110 q 181 821 121 579 q 394 971 218 971 q 617 785 571 971 q 649 664 625 753 q 690 506 672 575 q 726 356 707 438 q 768 125 768 181 q 631 0 768 0 l 615 0 l 154 1 l 153 1 m 372 701 l 286 178 q 469 168 342 174 l 372 701 z "},"∏":{"ha":939,"x_min":44,"x_max":908,"o":"m 96 46 q 172 174 96 147 l 172 499 l 171 499 q 44 639 44 499 q 56 708 44 675 q 78 754 67 740 l 88 768 l 792 768 q 908 629 908 768 q 894 553 908 586 q 867 510 881 521 l 853 499 l 776 499 l 776 168 l 821 163 q 846 66 846 143 q 800 -49 846 -11 q 646 -87 754 -87 q 517 -67 567 -87 l 500 -60 q 478 31 478 -37 q 495 129 478 99 q 554 174 513 160 l 554 499 l 365 499 l 365 168 l 410 163 q 435 66 435 143 q 389 -49 435 -11 q 235 -87 343 -87 q 128 -67 157 -87 l 118 -60 q 96 46 96 -37 z "},"∑":{"ha":628,"x_min":25,"x_max":597,"o":"m 571 106 q 597 29 597 88 q 556 -58 597 -29 q 421 -87 514 -87 l 196 -87 q 105 -67 142 -87 q 56 -19 68 -47 q 32 71 32 28 q 33 86 32 79 l 36 106 l 218 326 q 161 387 204 339 q 92 471 118 435 q 25 636 25 565 q 42 711 25 679 q 75 753 58 743 l 90 763 l 549 763 q 580 724 564 754 q 596 663 596 693 q 563 572 593 600 q 461 543 532 543 l 260 543 l 425 333 l 253 106 l 571 106 z "},"−":{"ha":588,"x_min":32,"x_max":556,"o":"m 108 283 q 52 308 72 283 q 32 377 32 332 q 60 461 32 422 l 478 461 q 556 369 556 461 q 538 306 556 324 q 167 283 221 283 q 108 283 113 283 z "},"√":{"ha":763,"x_min":0,"x_max":1013,"o":"m 713 1174 l 968 1174 q 998 1133 983 1165 q 1013 1067 1013 1101 q 953 942 1013 978 q 796 913 904 913 q 735 914 768 913 q 556 161 588 290 q 495 40 535 79 q 385 0 456 0 q 272 13 314 0 q 217 38 231 25 l 203 50 l 0 715 q 14 734 4 722 q 60 765 24 746 q 143 783 97 783 q 303 660 281 783 l 383 186 q 538 1017 436 417 q 713 1174 564 1174 z "},"∞":{"ha":1026,"x_min":47,"x_max":979,"o":"m 501 197 q 288 76 403 76 q 110 142 174 76 q 47 342 47 208 q 110 548 47 476 q 305 619 174 619 q 526 504 436 619 q 745 619 622 619 q 924 549 868 619 q 979 345 979 479 q 908 144 979 211 q 726 76 838 76 q 501 197 592 76 m 418 340 q 363 426 389 397 q 303 456 338 456 q 240 428 268 456 q 213 344 213 401 q 241 257 213 288 q 304 226 269 226 q 418 340 356 226 m 726 456 q 611 358 674 456 q 667 258 643 290 q 727 226 692 226 q 788 256 763 226 q 814 344 814 286 q 789 428 814 401 q 726 456 764 456 z "},"∫":{"ha":529,"x_min":-44,"x_max":572,"o":"m 407 979 q 547 961 507 979 l 560 954 q 572 878 572 917 q 566 815 572 839 q 533 768 560 790 q 458 746 506 746 q 397 748 406 746 q 376 744 388 750 q 365 734 365 738 q 360 709 364 731 q 357 671 357 688 l 357 81 q 297 -160 357 -83 q 113 -237 238 -237 q -6 -203 33 -237 q -44 -108 -44 -169 q -35 -60 -44 -82 q -4 -19 -25 -37 q 47 -26 6 -26 q 112 8 88 -26 q 136 110 136 42 l 136 651 q 407 979 136 979 z "},"≈":{"ha":600,"x_min":32,"x_max":568,"o":"m 531 607 q 535 605 531 607 q 553 581 539 603 q 568 517 568 558 q 529 444 568 476 q 407 413 490 413 q 297 435 361 413 q 203 458 232 458 q 97 442 142 458 l 82 435 q 68 440 76 436 q 46 464 60 443 q 32 526 32 485 q 70 600 32 568 q 192 632 108 632 q 304 610 235 632 q 401 586 374 588 q 501 606 451 586 l 517 613 q 531 607 522 611 m 196 389 q 307 370 238 389 q 403 351 376 351 q 501 367 460 351 l 517 372 q 531 368 522 371 q 553 347 539 365 q 567 295 567 329 q 528 235 567 261 q 427 210 490 210 q 299 228 364 210 q 206 246 235 246 q 106 231 153 246 l 89 226 q 75 231 83 228 q 53 251 67 233 q 40 296 40 269 q 196 389 40 389 z "},"≠":{"ha":624,"x_min":32,"x_max":592,"o":"m 478 568 q 560 543 536 568 q 585 467 585 518 q 572 385 585 428 q 404 372 529 375 l 397 306 q 581 264 553 306 q 592 222 592 244 q 583 168 592 188 q 375 143 521 151 q 322 -37 354 15 q 229 -89 289 -89 q 178 -75 194 -89 q 200 139 199 126 l 178 139 q 64 159 96 139 q 32 238 32 179 q 60 325 32 286 q 215 310 100 315 l 219 371 q 74 403 114 376 q 35 485 35 429 q 45 545 35 518 q 67 583 56 572 l 78 593 q 235 575 136 583 q 244 683 243 674 q 291 778 253 747 q 367 808 329 808 q 450 789 426 808 l 458 782 l 431 568 l 478 568 z "},"≤":{"ha":568,"x_min":32,"x_max":556,"o":"m 535 314 q 529 283 535 306 q 514 244 524 261 q 481 212 504 226 q 426 197 458 197 q 262 247 357 197 q 99 361 167 297 q 32 463 32 425 q 111 567 32 501 q 417 765 246 678 q 517 689 483 743 q 529 649 529 669 q 456 556 529 601 q 311 489 383 511 l 238 467 l 535 329 l 535 314 m 113 0 q 52 25 72 0 q 32 94 32 50 q 60 178 32 139 l 478 178 q 556 88 556 178 q 538 24 556 42 q 167 0 221 0 q 113 0 114 0 z "},"≥":{"ha":568,"x_min":32,"x_max":556,"o":"m 53 631 q 58 661 53 639 q 74 701 64 683 q 106 733 83 718 q 161 747 129 747 q 325 697 229 747 q 488 583 421 647 q 556 481 556 519 q 417 332 556 429 q 171 179 279 235 q 94 228 129 193 q 58 296 58 263 q 131 388 58 343 q 278 456 204 433 l 350 478 l 53 615 l 53 631 m 475 178 q 556 82 556 178 q 526 0 556 38 l 108 0 q 32 92 32 0 q 50 154 32 133 q 420 178 367 178 q 475 178 474 178 z "},"◊":{"ha":615,"x_min":58,"x_max":567,"o":"m 311 68 q 378 310 378 274 q 299 518 378 346 l 228 313 l 311 68 m 567 329 q 447 33 567 235 q 393 -29 421 -11 q 324 -47 365 -47 q 214 -22 253 -47 l 203 -15 l 58 294 q 168 694 121 568 q 217 750 179 729 q 314 771 254 771 q 461 688 425 771 q 528 495 490 621 q 567 329 567 369 z "},"":{"ha":2396,"x_min":294,"x_max":2101,"o":"m 331 264 l 335 385 l 294 385 l 294 507 l 472 565 l 478 522 l 721 522 q 718 367 718 372 q 741 328 718 328 q 764 367 764 328 l 761 522 l 917 522 q 926 321 926 438 q 873 156 926 204 q 706 107 819 107 q 626 115 660 107 q 581 131 592 122 l 568 139 l 568 261 q 684 232 606 232 q 781 285 763 232 q 696 264 760 264 q 560 372 560 264 l 560 385 l 496 385 l 496 294 q 538 303 518 294 l 538 194 q 439 169 511 169 q 331 264 331 169 m 1076 696 q 1118 706 1101 696 l 1118 596 q 1019 571 1090 571 q 911 665 911 571 q 913 739 911 688 l 914 792 l 881 792 l 881 914 l 1051 967 l 1057 924 l 1310 924 q 1322 581 1322 831 l 1154 581 q 1157 792 1154 742 l 1076 792 l 1076 696 m 1140 107 l 954 107 q 967 475 954 331 l 971 522 l 1085 522 q 1096 413 1096 447 q 1210 535 1115 535 q 1293 491 1261 535 q 1325 360 1325 447 q 1276 221 1325 272 q 1138 169 1228 169 q 1140 107 1140 147 m 861 581 l 750 581 l 736 665 q 628 571 718 571 q 496 736 496 571 q 542 881 496 832 q 690 929 588 929 q 861 764 861 929 l 861 581 m 1515 718 l 1522 581 l 1356 581 q 1368 894 1356 804 l 1372 924 l 1483 924 q 1493 822 1493 869 q 1514 878 1496 849 q 1608 929 1549 929 q 1691 892 1668 929 q 1719 761 1714 856 l 1729 581 l 1560 581 l 1563 718 q 1540 756 1563 756 q 1515 718 1515 756 m 1922 929 q 2063 880 2024 929 q 2101 748 2101 831 q 2056 618 2101 665 q 1923 571 2011 571 q 1790 618 1835 571 q 1746 746 1746 665 q 1922 929 1746 929 m 1531 289 q 1540 283 1531 289 q 1586 278 1549 278 q 1651 300 1624 278 l 1651 193 q 1533 169 1621 169 q 1398 217 1446 169 q 1350 347 1350 264 q 1531 535 1350 535 q 1651 490 1607 535 q 1696 367 1696 444 l 1689 314 l 1513 314 q 1531 289 1513 300 m 468 581 l 297 581 q 310 975 297 804 l 314 1032 l 453 1032 q 468 581 468 831 m 1300 968 q 1288 955 1300 968 q 1238 942 1275 942 q 1176 968 1200 942 q 1151 1031 1151 994 q 1176 1094 1151 1068 q 1238 1119 1200 1119 q 1300 1094 1275 1119 q 1325 1031 1325 1068 q 1300 968 1325 994 m 1823 433 q 1815 425 1823 433 q 1785 417 1807 417 q 1746 433 1763 417 q 1729 471 1729 449 q 1746 509 1729 493 q 1785 525 1763 525 q 1823 509 1807 525 q 1839 471 1839 493 q 1823 433 1839 449 m 1816 440 q 1823 446 1816 440 q 1829 471 1829 453 q 1816 502 1829 489 q 1785 515 1803 515 q 1753 502 1767 515 q 1740 471 1740 489 q 1753 440 1740 453 q 1785 426 1767 426 q 1816 440 1803 426 m 1922 686 q 1958 728 1958 686 q 1922 769 1958 769 q 1889 728 1889 769 q 1922 686 1889 686 m 683 686 q 718 728 718 686 q 683 769 718 769 q 653 728 653 769 q 683 686 653 686 m 1172 342 q 1144 372 1172 372 q 1110 328 1110 372 l 1115 289 q 1153 304 1135 289 q 1172 342 1172 319 m 1503 350 l 1561 350 q 1563 363 1563 354 q 1536 390 1563 390 q 1503 350 1503 390 m 1775 461 l 1775 444 l 1764 444 l 1764 499 l 1788 499 q 1810 483 1810 499 q 1797 464 1810 468 l 1810 444 l 1796 444 l 1786 461 l 1775 461 m 1775 471 l 1788 471 q 1797 480 1797 471 q 1788 489 1797 489 l 1775 489 l 1775 471 z "},"ﬁ":{"ha":799,"x_min":14,"x_max":775,"o":"m 456 567 q 464 497 464 525 q 460 450 464 469 q 439 412 456 431 q 389 393 422 393 q 304 397 356 393 q 306 175 306 325 q 267 -33 306 25 q 151 -90 229 -90 q 77 -73 106 -90 q 42 -39 49 -56 l 36 -21 q 77 44 58 1 q 96 125 96 88 q 89 425 96 276 q 60 428 76 426 q 34 431 44 429 q 17 432 24 432 q 14 449 14 439 q 79 571 14 540 q 71 736 71 732 q 141 910 71 829 q 318 990 211 990 q 485 864 485 990 q 467 767 485 822 q 301 768 301 826 l 303 579 q 456 567 418 567 m 646 0 q 532 164 532 0 q 542 713 532 581 q 635 742 571 742 q 744 568 744 742 l 744 156 l 775 85 q 760 61 769 75 q 717 24 750 47 q 646 0 683 0 m 750 938 q 750 909 750 938 q 722 844 750 881 q 638 807 694 807 q 555 848 582 807 q 510 974 528 889 q 525 998 515 983 q 567 1037 535 1013 q 635 1061 600 1061 q 724 1028 699 1061 q 750 938 750 996 z "},"ﬂ":{"ha":799,"x_min":14,"x_max":775,"o":"m 456 567 q 464 497 464 525 q 460 450 464 469 q 439 412 456 431 q 389 393 422 393 q 304 397 356 393 q 306 175 306 325 q 267 -33 306 25 q 151 -90 229 -90 q 77 -73 106 -90 q 42 -39 49 -56 l 36 -21 q 77 44 58 1 q 96 125 96 88 q 89 425 96 276 q 60 428 76 426 q 34 431 44 429 q 17 432 24 432 q 14 449 14 439 q 79 571 14 540 q 71 736 71 732 q 141 910 71 829 q 318 990 211 990 q 485 864 485 990 q 467 767 485 822 q 301 768 301 826 l 303 579 q 456 567 418 567 m 532 164 l 532 692 q 508 883 532 807 l 501 910 q 517 928 507 917 q 563 958 528 939 q 635 976 597 976 q 744 803 744 976 l 744 156 l 775 85 q 760 61 769 75 q 717 24 750 47 q 646 0 683 0 q 532 164 532 0 z "}," ":{"ha":311,"x_min":0,"x_max":0,"o":""}}}
